<?xml version="1.0" encoding="UTF-8" standalone="no"?>
<svg
   width="50"
   height="50"
   viewBox="0 0 50 50"
   fill="none"
   version="1.1"
   id="svg1289"
   sodipodi:docname="bd_trash_hover.svg"
   inkscape:version="1.2.2 (732a01da63, 2022-12-09)"
   xmlns:inkscape="http://www.inkscape.org/namespaces/inkscape"
   xmlns:sodipodi="http://sodipodi.sourceforge.net/DTD/sodipodi-0.dtd"
   xmlns="http://www.w3.org/2000/svg"
   xmlns:svg="http://www.w3.org/2000/svg">
  <defs
     id="defs1293" />
  <sodipodi:namedview
     id="namedview1291"
     pagecolor="#ffffff"
     bordercolor="#000000"
     borderopacity="0.25"
     inkscape:showpageshadow="2"
     inkscape:pageopacity="0.0"
     inkscape:pagecheckerboard="0"
     inkscape:deskcolor="#d1d1d1"
     showgrid="false"
     inkscape:zoom="16.08"
     inkscape:cx="24.595771"
     inkscape:cy="25.031095"
     inkscape:window-width="1920"
     inkscape:window-height="991"
     inkscape:window-x="1701"
     inkscape:window-y="186"
     inkscape:window-maximized="1"
     inkscape:current-layer="svg1289" />
  <path
     d="M10 0.5H49.5V49.5H10C4.75329 49.5 0.5 45.2467 0.5 40V10C0.5 4.75329 4.75329 0.5 10 0.5Z"
     fill="white"
     id="path1278" />
  <mask
     id="mask0_62237_814"
     style="mask-type:alpha"
     maskUnits="userSpaceOnUse"
     x="9"
     y="9"
     width="32"
     height="32">
    <rect
       x="9"
       y="9"
       width="32"
       height="32"
       fill="#D9D9D9"
       id="rect1280" />
  </mask>
  <g
     mask="url(#mask0_62237_814)"
     id="g1285"
     style="fill:#29abe2;fill-opacity:1">
    <path
       d="M18.3329 37C17.5996 37 16.9718 36.7389 16.4496 36.2167C15.9273 35.6944 15.6662 35.0667 15.6662 34.3333V17H14.3329V14.3333H20.9996V13H28.9996V14.3333H35.6662V17H34.3329V34.3333C34.3329 35.0667 34.0718 35.6944 33.5496 36.2167C33.0273 36.7389 32.3996 37 31.6662 37H18.3329ZM31.6662 17H18.3329V34.3333H31.6662V17ZM20.9996 31.6667H23.6662V19.6667H20.9996V31.6667ZM26.3329 31.6667H28.9996V19.6667H26.3329V31.6667Z"
       fill="#2A3647"
       id="path1283"
       style="fill:#29abe2;fill-opacity:1" />
  </g>
  <path
     d="M10 0.5H49.5V49.5H10C4.75329 49.5 0.5 45.2467 0.5 40V10C0.5 4.75329 4.75329 0.5 10 0.5Z"
     stroke="#2A3647"
     id="path1287"
     style="stroke:#29abe2;stroke-opacity:1" />
</svg>
