<svg width="31" height="31" viewBox="0 0 31 31" fill="none" xmlns="http://www.w3.org/2000/svg">
<path d="M22.5 6.49979L22.5 24.4998C22.4995 25.0301 22.2886 25.5385 21.9136 25.9134C21.5387 26.2884 21.0303 26.4993 20.5 26.4998L16.5 26.4998C15.9697 26.4993 15.4613 26.2884 15.0864 25.9134C14.7114 25.5385 14.5005 25.0301 14.5 24.4998L14.5 6.49979C14.5005 5.96952 14.7114 5.46112 15.0864 5.08616C15.4613 4.7112 15.9697 4.50032 16.5 4.49979L20.5 4.49979C21.0303 4.50032 21.5387 4.7112 21.9136 5.08616C22.2886 5.46112 22.4995 5.96952 22.5 6.49979ZM16.5 24.4998L20.5 24.4998L20.5 6.49979L16.5 6.49979L16.5 24.4998ZM16.5 6.49979L16.5 24.4998C16.4995 25.0301 16.2886 25.5384 15.9136 25.9134C15.5387 26.2883 15.0303 26.4992 14.5 26.4998L10.5 26.4998C9.96973 26.4992 9.46133 26.2883 9.08637 25.9134C8.71141 25.5384 8.50053 25.03 8.5 24.4998L8.5 6.49977C8.50053 5.9695 8.71141 5.4611 9.08637 5.08614C9.46133 4.71118 9.96973 4.5003 10.5 4.49977L14.5 4.49977C15.0303 4.5003 15.5387 4.71118 15.9136 5.08614C16.2886 5.4611 16.4995 5.96952 16.5 6.49979ZM10.5 24.4998L14.5 24.4998L14.5 6.49979L10.5 6.49977L10.5 24.4998ZM10.5 6.49977L10.5 24.4998C10.4995 25.03 10.2886 25.5384 9.91363 25.9134C9.53867 26.2883 9.03027 26.4992 8.5 26.4998L4.5 26.4998C3.96973 26.4992 3.46133 26.2883 3.08637 25.9134C2.71141 25.5384 2.50053 25.03 2.5 24.4998L2.5 6.49977C2.50053 5.9695 2.71141 5.4611 3.08637 5.08614C3.46133 4.71118 3.96973 4.5003 4.5 4.49977L8.5 4.49977C9.03027 4.5003 9.53867 4.71118 9.91363 5.08614C10.2886 5.4611 10.4995 5.9695 10.5 6.49977ZM4.5 24.4998L8.5 24.4998L8.5 6.49977L4.5 6.49977L4.5 24.4998Z" fill="#CDCDCD"/>
<path d="M28.5 6.50001L28.5 24.5C28.4995 25.0303 28.2886 25.5387 27.9136 25.9136C27.5387 26.2886 27.0303 26.4995 26.5 26.5L22.5 26.5C21.9697 26.4995 21.4613 26.2886 21.0864 25.9136C20.7114 25.5387 20.5005 25.0301 20.5 24.4998L20.5 6.49979C20.5005 5.96952 20.7114 5.46134 21.0864 5.08638C21.4613 4.71142 21.9697 4.50054 22.5 4.50001L26.5 4.50001C27.0303 4.50054 27.5387 4.71142 27.9136 5.08638C28.2886 5.46134 28.4995 5.96974 28.5 6.50001ZM22.5 24.4998L26.5 24.5L26.5 6.50001L22.5 6.49979L22.5 24.4998Z" fill="#CDCDCD"/>
</svg>
