<svg width="618" height="60" viewBox="0 0 618 60" fill="none" xmlns="http://www.w3.org/2000/svg">
<path d="M9.40194 2.13636V46.5H0.0223277V2.13636H9.40194ZM48.9566 13.2273V20.1591H28.4211V13.2273H48.9566ZM33.1218 46.5V10.8228C33.1218 8.4111 33.5911 6.41098 34.5298 4.82244C35.4829 3.2339 36.7826 2.04249 38.4289 1.24822C40.0752 0.453951 41.9454 0.0568152 44.0394 0.0568152C45.4546 0.0568152 46.7471 0.165126 47.9169 0.381747C49.101 0.598365 49.982 0.793323 50.5596 0.966619L48.9133 7.89844C48.5523 7.78291 48.1046 7.6746 47.5703 7.57351C47.0504 7.47242 46.5161 7.42188 45.9673 7.42188C44.6098 7.42188 43.6639 7.73958 43.1296 8.375C42.5952 8.99597 42.3281 9.86967 42.3281 10.9961V46.5H33.1218ZM68.4361 47.1499C65.0713 47.1499 62.1614 46.435 59.7064 45.0053C57.2658 43.5612 55.3812 41.5539 54.0526 38.9833C52.724 36.3983 52.0597 33.4018 52.0597 29.9936C52.0597 26.5566 52.724 23.5528 54.0526 20.9822C55.3812 18.3973 57.2658 16.3899 59.7064 14.9602C62.1614 13.5161 65.0713 12.794 68.4361 12.794C71.8009 12.794 74.7036 13.5161 77.1442 14.9602C79.5992 16.3899 81.491 18.3973 82.8196 20.9822C84.1482 23.5528 84.8125 26.5566 84.8125 29.9936C84.8125 33.4018 84.1482 36.3983 82.8196 38.9833C81.491 41.5539 79.5992 43.5612 77.1442 45.0053C74.7036 46.435 71.8009 47.1499 68.4361 47.1499ZM68.4794 40.0014C70.0102 40.0014 71.2883 39.5682 72.3136 38.7017C73.3389 37.8208 74.1116 36.6222 74.6314 35.1058C75.1658 33.5895 75.4329 31.8638 75.4329 29.9286C75.4329 27.9935 75.1658 26.2678 74.6314 24.7514C74.1116 23.2351 73.3389 22.0365 72.3136 21.1555C71.2883 20.2746 70.0102 19.8342 68.4794 19.8342C66.9342 19.8342 65.6345 20.2746 64.5803 21.1555C63.5405 22.0365 62.7535 23.2351 62.2192 24.7514C61.6993 26.2678 61.4393 27.9935 61.4393 29.9286C61.4393 31.8638 61.6993 33.5895 62.2192 35.1058C62.7535 36.6222 63.5405 37.8208 64.5803 38.7017C65.6345 39.5682 66.9342 40.0014 68.4794 40.0014ZM90.8129 46.5V13.2273H99.7593V19.0327H100.106C100.712 16.9676 101.731 15.4079 103.16 14.3537C104.59 13.285 106.236 12.7507 108.099 12.7507C108.561 12.7507 109.059 12.7796 109.594 12.8374C110.128 12.8951 110.597 12.9745 111.002 13.0756V21.2638C110.569 21.1339 109.969 21.0183 109.204 20.9173C108.438 20.8162 107.738 20.7656 107.103 20.7656C105.745 20.7656 104.532 21.0617 103.463 21.6538C102.409 22.2314 101.572 23.0401 100.951 24.0799C100.344 25.1197 100.041 26.3183 100.041 27.6758V46.5H90.8129ZM129.214 59.6705C126.225 59.6705 123.661 59.2589 121.524 58.4357C119.401 57.627 117.712 56.5223 116.455 55.1214C115.199 53.7206 114.383 52.1465 114.007 50.3991L122.542 49.2511C122.802 49.9154 123.214 50.5363 123.777 51.114C124.34 51.6916 125.084 52.1538 126.008 52.5004C126.947 52.8614 128.088 53.0419 129.431 53.0419C131.438 53.0419 133.092 52.5509 134.391 51.5689C135.705 50.6013 136.363 48.9767 136.363 46.695V40.608H135.973C135.568 41.5322 134.962 42.4059 134.153 43.229C133.344 44.0522 132.305 44.7237 131.034 45.2436C129.763 45.7635 128.247 46.0234 126.485 46.0234C123.986 46.0234 121.712 45.4458 119.661 44.2905C117.625 43.1207 116 41.3372 114.787 38.94C113.589 36.5283 112.989 33.4812 112.989 29.7986C112.989 26.0295 113.603 22.8813 114.831 20.354C116.058 17.8268 117.69 15.935 119.726 14.6786C121.777 13.4222 124.022 12.794 126.463 12.794C128.326 12.794 129.886 13.1117 131.142 13.7472C132.398 14.3681 133.409 15.148 134.175 16.0866C134.955 17.0109 135.554 17.9207 135.973 18.816H136.319V13.2273H145.482V46.8249C145.482 49.6554 144.789 52.0238 143.403 53.93C142.016 55.8363 140.096 57.266 137.641 58.2191C135.2 59.1867 132.391 59.6705 129.214 59.6705ZM129.409 39.0916C130.896 39.0916 132.153 38.7234 133.178 37.9869C134.218 37.2359 135.012 36.1673 135.561 34.7809C136.124 33.3801 136.406 31.7049 136.406 29.7553C136.406 27.8058 136.131 26.1161 135.583 24.6864C135.034 23.2423 134.24 22.1231 133.2 21.3288C132.16 20.5346 130.896 20.1374 129.409 20.1374C127.893 20.1374 126.615 20.549 125.575 21.3722C124.535 22.1809 123.748 23.3073 123.214 24.7514C122.679 26.1955 122.412 27.8635 122.412 29.7553C122.412 31.676 122.679 33.3368 123.214 34.7376C123.763 36.1239 124.55 37.1998 125.575 37.9652C126.615 38.7161 127.893 39.0916 129.409 39.0916ZM167.859 47.1499C164.494 47.1499 161.584 46.435 159.129 45.0053C156.689 43.5612 154.804 41.5539 153.475 38.9833C152.147 36.3983 151.483 33.4018 151.483 29.9936C151.483 26.5566 152.147 23.5528 153.475 20.9822C154.804 18.3973 156.689 16.3899 159.129 14.9602C161.584 13.5161 164.494 12.794 167.859 12.794C171.224 12.794 174.126 13.5161 176.567 14.9602C179.022 16.3899 180.914 18.3973 182.242 20.9822C183.571 23.5528 184.235 26.5566 184.235 29.9936C184.235 33.4018 183.571 36.3983 182.242 38.9833C180.914 41.5539 179.022 43.5612 176.567 45.0053C174.126 46.435 171.224 47.1499 167.859 47.1499ZM167.902 40.0014C169.433 40.0014 170.711 39.5682 171.736 38.7017C172.762 37.8208 173.534 36.6222 174.054 35.1058C174.589 33.5895 174.856 31.8638 174.856 29.9286C174.856 27.9935 174.589 26.2678 174.054 24.7514C173.534 23.2351 172.762 22.0365 171.736 21.1555C170.711 20.2746 169.433 19.8342 167.902 19.8342C166.357 19.8342 165.057 20.2746 164.003 21.1555C162.963 22.0365 162.176 23.2351 161.642 24.7514C161.122 26.2678 160.862 27.9935 160.862 29.9286C160.862 31.8638 161.122 33.5895 161.642 35.1058C162.176 36.6222 162.963 37.8208 164.003 38.7017C165.057 39.5682 166.357 40.0014 167.902 40.0014ZM207.934 13.2273V20.1591H187.896V13.2273H207.934ZM192.445 5.25568H201.673V36.2756C201.673 37.1276 201.803 37.7919 202.063 38.2685C202.323 38.7306 202.684 39.0555 203.146 39.2433C203.623 39.431 204.172 39.5249 204.793 39.5249C205.226 39.5249 205.659 39.4888 206.092 39.4165C206.526 39.3299 206.858 39.2649 207.089 39.2216L208.54 46.0884C208.078 46.2328 207.428 46.3989 206.591 46.5866C205.753 46.7888 204.735 46.9116 203.536 46.9549C201.312 47.0415 199.363 46.7455 197.687 46.0668C196.027 45.388 194.734 44.3338 193.81 42.9041C192.886 41.4744 192.431 39.6693 192.445 37.4886V5.25568ZM228.063 46.5V13.2273H236.858V19.0977H237.248C237.941 17.1481 239.096 15.6101 240.713 14.4837C242.331 13.3572 244.266 12.794 246.519 12.794C248.801 12.794 250.743 13.3645 252.346 14.5053C253.949 15.6317 255.018 17.1625 255.552 19.0977H255.898C256.577 17.1914 257.805 15.6678 259.581 14.527C261.372 13.3717 263.487 12.794 265.928 12.794C269.033 12.794 271.553 13.7833 273.488 15.7617C275.438 17.7257 276.412 20.5129 276.412 24.1232V46.5H267.206V25.9428C267.206 24.0943 266.715 22.708 265.733 21.7837C264.751 20.8595 263.523 20.3974 262.05 20.3974C260.375 20.3974 259.068 20.9317 258.13 22.0004C257.191 23.0546 256.722 24.4482 256.722 26.1811V46.5H247.775V25.7479C247.775 24.116 247.306 22.8163 246.367 21.8487C245.443 20.8812 244.223 20.3974 242.706 20.3974C241.681 20.3974 240.757 20.6573 239.934 21.1772C239.125 21.6826 238.482 22.3975 238.006 23.3217C237.529 24.2315 237.291 25.3002 237.291 26.5277V46.5H228.063ZM288.207 58.9773C287.038 58.9773 285.94 58.8834 284.915 58.6957C283.904 58.5224 283.066 58.2985 282.402 58.0241L284.481 51.1357C285.564 51.4678 286.539 51.6483 287.406 51.6772C288.287 51.7061 289.045 51.5039 289.68 51.0707C290.33 50.6374 290.857 49.9009 291.262 48.8612L291.803 47.4531L279.867 13.2273H289.572L296.46 37.6619H296.807L303.761 13.2273H313.53L300.598 50.0959C299.977 51.8866 299.132 53.4463 298.063 54.7749C297.009 56.1179 295.673 57.1505 294.056 57.8725C292.439 58.609 290.489 58.9773 288.207 58.9773ZM332.371 58.9773V13.2273H341.469V18.816H341.88C342.284 17.9207 342.869 17.0109 343.635 16.0866C344.415 15.148 345.425 14.3681 346.667 13.7472C347.924 13.1117 349.483 12.794 351.346 12.794C353.773 12.794 356.011 13.4295 358.062 14.7003C360.112 15.9567 361.751 17.8557 362.979 20.3974C364.206 22.9246 364.82 26.0945 364.82 29.907C364.82 33.6184 364.221 36.7521 363.022 39.3082C361.838 41.8499 360.221 43.7778 358.17 45.092C356.134 46.3917 353.852 47.0415 351.325 47.0415C349.534 47.0415 348.01 46.7455 346.754 46.1534C345.512 45.5613 344.494 44.8176 343.7 43.9222C342.905 43.0124 342.299 42.0954 341.88 41.1712H341.599V58.9773H332.371ZM341.404 29.8636C341.404 31.8421 341.678 33.5678 342.227 35.0408C342.775 36.5138 343.57 37.6619 344.61 38.4851C345.649 39.2938 346.913 39.6982 348.4 39.6982C349.902 39.6982 351.173 39.2866 352.213 38.4634C353.253 37.6258 354.04 36.4705 354.574 34.9975C355.123 33.5101 355.397 31.7988 355.397 29.8636C355.397 27.9429 355.13 26.2533 354.596 24.7947C354.061 23.3362 353.274 22.1953 352.235 21.3722C351.195 20.549 349.917 20.1374 348.4 20.1374C346.898 20.1374 345.628 20.5346 344.588 21.3288C343.563 22.1231 342.775 23.2495 342.227 24.7081C341.678 26.1667 341.404 27.8852 341.404 29.8636ZM380.46 47.1282C378.337 47.1282 376.445 46.7599 374.785 46.0234C373.124 45.2725 371.81 44.1677 370.842 42.7092C369.889 41.2362 369.412 39.4021 369.412 37.207C369.412 35.3585 369.752 33.8061 370.431 32.5497C371.109 31.2933 372.034 30.2824 373.203 29.517C374.373 28.7517 375.702 28.174 377.189 27.7841C378.691 27.3942 380.265 27.1198 381.911 26.9609C383.846 26.7588 385.406 26.571 386.59 26.3977C387.775 26.21 388.634 25.9356 389.168 25.5746C389.702 25.2135 389.97 24.6792 389.97 23.9716V23.8416C389.97 22.4697 389.536 21.4083 388.67 20.6573C387.818 19.9064 386.605 19.5309 385.031 19.5309C383.37 19.5309 382.049 19.8991 381.067 20.6357C380.085 21.3577 379.435 22.2675 379.117 23.3651L370.582 22.6719C371.015 20.6501 371.867 18.9027 373.138 17.4297C374.409 15.9422 376.048 14.8014 378.056 14.0071C380.077 13.1984 382.417 12.794 385.074 12.794C386.922 12.794 388.692 13.0107 390.381 13.4439C392.085 13.8771 393.594 14.5486 394.909 15.4584C396.237 16.3683 397.284 17.538 398.049 18.9677C398.815 20.3829 399.198 22.0798 399.198 24.0582V46.5H390.446V41.886H390.186C389.652 42.9258 388.937 43.8428 388.042 44.6371C387.146 45.4169 386.07 46.0307 384.814 46.4783C383.558 46.9116 382.106 47.1282 380.46 47.1282ZM383.103 40.7596C384.46 40.7596 385.659 40.4924 386.699 39.9581C387.738 39.4093 388.554 38.6728 389.146 37.7486C389.739 36.8243 390.035 35.7773 390.035 34.6076V31.0767C389.746 31.2644 389.349 31.4377 388.843 31.5966C388.352 31.741 387.796 31.8782 387.175 32.0082C386.554 32.1237 385.933 32.232 385.312 32.3331C384.691 32.4197 384.128 32.4992 383.623 32.5714C382.54 32.7302 381.594 32.983 380.785 33.3295C379.976 33.6761 379.348 34.1455 378.9 34.7376C378.453 35.3152 378.229 36.0373 378.229 36.9038C378.229 38.1602 378.684 39.1205 379.594 39.7848C380.518 40.4347 381.688 40.7596 383.103 40.7596ZM434.041 22.7152L425.593 23.2351C425.448 22.513 425.138 21.8632 424.661 21.2855C424.185 20.6934 423.556 20.2241 422.777 19.8775C422.011 19.5165 421.094 19.3359 420.026 19.3359C418.596 19.3359 417.39 19.6392 416.408 20.2457C415.426 20.8378 414.935 21.6321 414.935 22.6285C414.935 23.4228 415.253 24.0943 415.888 24.6431C416.524 25.1919 417.614 25.6323 419.159 25.9645L425.181 27.1776C428.416 27.8419 430.828 28.9105 432.416 30.3835C434.005 31.8565 434.799 33.7917 434.799 36.1889C434.799 38.3696 434.156 40.283 432.871 41.9293C431.6 43.5756 429.853 44.8609 427.629 45.7852C425.419 46.695 422.87 47.1499 419.982 47.1499C415.578 47.1499 412.068 46.2328 409.455 44.3988C406.855 42.5503 405.332 40.0375 404.884 36.8604L413.96 36.3839C414.235 37.7269 414.899 38.7522 415.953 39.4599C417.007 40.1531 418.358 40.4996 420.004 40.4996C421.621 40.4996 422.921 40.1892 423.903 39.5682C424.899 38.9328 425.405 38.1168 425.419 37.1204C425.405 36.2828 425.051 35.5968 424.358 35.0625C423.665 34.5137 422.596 34.0949 421.152 33.8061L415.39 32.658C412.141 32.0082 409.722 30.8817 408.133 29.2788C406.559 27.6758 405.772 25.6323 405.772 23.1484C405.772 21.0111 406.35 19.1699 407.505 17.6246C408.675 16.0794 410.314 14.888 412.422 14.0504C414.545 13.2128 417.029 12.794 419.874 12.794C424.076 12.794 427.383 13.6822 429.795 15.4584C432.221 17.2347 433.636 19.6536 434.041 22.7152ZM468.294 22.7152L459.846 23.2351C459.701 22.513 459.391 21.8632 458.914 21.2855C458.438 20.6934 457.809 20.2241 457.03 19.8775C456.264 19.5165 455.347 19.3359 454.278 19.3359C452.849 19.3359 451.643 19.6392 450.661 20.2457C449.679 20.8378 449.188 21.6321 449.188 22.6285C449.188 23.4228 449.506 24.0943 450.141 24.6431C450.776 25.1919 451.867 25.6323 453.412 25.9645L459.434 27.1776C462.669 27.8419 465.081 28.9105 466.669 30.3835C468.258 31.8565 469.052 33.7917 469.052 36.1889C469.052 38.3696 468.409 40.283 467.124 41.9293C465.853 43.5756 464.106 44.8609 461.882 45.7852C459.672 46.695 457.123 47.1499 454.235 47.1499C449.831 47.1499 446.321 46.2328 443.707 44.3988C441.108 42.5503 439.584 40.0375 439.137 36.8604L448.213 36.3839C448.487 37.7269 449.152 38.7522 450.206 39.4599C451.26 40.1531 452.61 40.4996 454.257 40.4996C455.874 40.4996 457.174 40.1892 458.156 39.5682C459.152 38.9328 459.658 38.1168 459.672 37.1204C459.658 36.2828 459.304 35.5968 458.611 35.0625C457.918 34.5137 456.849 34.0949 455.405 33.8061L449.643 32.658C446.394 32.0082 443.975 30.8817 442.386 29.2788C440.812 27.6758 440.025 25.6323 440.025 23.1484C440.025 21.0111 440.603 19.1699 441.758 17.6246C442.928 16.0794 444.567 14.888 446.675 14.0504C448.798 13.2128 451.282 12.794 454.127 12.794C458.329 12.794 461.636 13.6822 464.048 15.4584C466.474 17.2347 467.889 19.6536 468.294 22.7152ZM481.426 46.5L472.372 13.2273H481.708L486.863 35.5824H487.167L492.539 13.2273H501.702L507.161 35.4524H507.442L512.511 13.2273H521.826L512.793 46.5H503.023L497.304 25.5746H496.893L491.174 46.5H481.426ZM540.948 47.1499C537.583 47.1499 534.673 46.435 532.218 45.0053C529.778 43.5612 527.893 41.5539 526.564 38.9833C525.236 36.3983 524.571 33.4018 524.571 29.9936C524.571 26.5566 525.236 23.5528 526.564 20.9822C527.893 18.3973 529.778 16.3899 532.218 14.9602C534.673 13.5161 537.583 12.794 540.948 12.794C544.313 12.794 547.215 13.5161 549.656 14.9602C552.111 16.3899 554.003 18.3973 555.331 20.9822C556.66 23.5528 557.324 26.5566 557.324 29.9936C557.324 33.4018 556.66 36.3983 555.331 38.9833C554.003 41.5539 552.111 43.5612 549.656 45.0053C547.215 46.435 544.313 47.1499 540.948 47.1499ZM540.991 40.0014C542.522 40.0014 543.8 39.5682 544.825 38.7017C545.851 37.8208 546.623 36.6222 547.143 35.1058C547.677 33.5895 547.945 31.8638 547.945 29.9286C547.945 27.9935 547.677 26.2678 547.143 24.7514C546.623 23.2351 545.851 22.0365 544.825 21.1555C543.8 20.2746 542.522 19.8342 540.991 19.8342C539.446 19.8342 538.146 20.2746 537.092 21.1555C536.052 22.0365 535.265 23.2351 534.731 24.7514C534.211 26.2678 533.951 27.9935 533.951 29.9286C533.951 31.8638 534.211 33.5895 534.731 35.1058C535.265 36.6222 536.052 37.8208 537.092 38.7017C538.146 39.5682 539.446 40.0014 540.991 40.0014ZM563.325 46.5V13.2273H572.271V19.0327H572.618C573.224 16.9676 574.242 15.4079 575.672 14.3537C577.102 13.285 578.748 12.7507 580.611 12.7507C581.073 12.7507 581.571 12.7796 582.106 12.8374C582.64 12.8951 583.109 12.9745 583.514 13.0756V21.2638C583.08 21.1339 582.481 21.0183 581.716 20.9173C580.95 20.8162 580.25 20.7656 579.614 20.7656C578.257 20.7656 577.044 21.0617 575.975 21.6538C574.921 22.2314 574.083 23.0401 573.462 24.0799C572.856 25.1197 572.553 26.3183 572.553 27.6758V46.5H563.325ZM598.996 47.0415C596.469 47.0415 594.18 46.3917 592.13 45.092C590.093 43.7778 588.476 41.8499 587.277 39.3082C586.093 36.7521 585.501 33.6184 585.501 29.907C585.501 26.0945 586.115 22.9246 587.342 20.3974C588.57 17.8557 590.202 15.9567 592.238 14.7003C594.289 13.4295 596.534 12.794 598.975 12.794C600.838 12.794 602.39 13.1117 603.632 13.7472C604.888 14.3681 605.899 15.148 606.665 16.0866C607.445 17.0109 608.037 17.9207 608.441 18.816H608.723V2.13636H617.929V46.5H608.831V41.1712H608.441C608.008 42.0954 607.394 43.0124 606.6 43.9222C605.82 44.8176 604.802 45.5613 603.545 46.1534C602.303 46.7455 600.787 47.0415 598.996 47.0415ZM601.921 39.6982C603.408 39.6982 604.665 39.2938 605.69 38.4851C606.73 37.6619 607.524 36.5138 608.073 35.0408C608.636 33.5678 608.918 31.8421 608.918 29.8636C608.918 27.8852 608.643 26.1667 608.094 24.7081C607.546 23.2495 606.751 22.1231 605.712 21.3288C604.672 20.5346 603.408 20.1374 601.921 20.1374C600.404 20.1374 599.126 20.549 598.087 21.3722C597.047 22.1953 596.26 23.3362 595.725 24.7947C595.191 26.2533 594.924 27.9429 594.924 29.8636C594.924 31.7988 595.191 33.5101 595.725 34.9975C596.274 36.4705 597.061 37.6258 598.087 38.4634C599.126 39.2866 600.404 39.6982 601.921 39.6982Z" fill="black"/>
</svg>
