<svg width="32" height="33" viewBox="0 0 32 33" fill="none" xmlns="http://www.w3.org/2000/svg">
<rect y="0.5" width="32" height="32" rx="10" fill="white"/>
<g clip-path="url(#clip0_60639_967)">
<path d="M15.9997 17.7452C15.8003 17.7456 15.606 17.6837 15.4455 17.5686L7.877 12.1347C7.77852 12.0639 7.69535 11.975 7.63223 11.873C7.5691 11.7709 7.52726 11.6578 7.5091 11.5401C7.47241 11.3023 7.53439 11.0601 7.68138 10.8667C7.82838 10.6734 8.04835 10.5447 8.29292 10.5091C8.53749 10.4734 8.78661 10.5336 8.98549 10.6766L15.9997 15.7075L23.014 10.6766C23.1125 10.6058 23.2243 10.5546 23.3431 10.5258C23.462 10.4971 23.5855 10.4914 23.7066 10.5091C23.8277 10.5267 23.944 10.5674 24.0489 10.6288C24.1538 10.6901 24.2453 10.771 24.3181 10.8667C24.3909 10.9625 24.4436 11.0712 24.4731 11.1868C24.5027 11.3023 24.5085 11.4224 24.4904 11.5401C24.4722 11.6578 24.4304 11.7709 24.3672 11.873C24.3041 11.975 24.221 12.0639 24.1225 12.1347L16.554 17.5686C16.3934 17.6837 16.1992 17.7456 15.9997 17.7452Z" fill="#7AE229"/>
<path d="M16 22.5001C15.8006 22.5005 15.6063 22.4386 15.4457 22.3235L7.87724 16.8896C7.67837 16.7466 7.54603 16.5328 7.50934 16.295C7.47266 16.0572 7.53463 15.815 7.68163 15.6216C7.82862 15.4283 8.0486 15.2996 8.29317 15.2639C8.53773 15.2283 8.78686 15.2885 8.98574 15.4314L16 20.4624L23.0142 15.4314C23.2131 15.2885 23.4622 15.2283 23.7068 15.2639C23.9514 15.2996 24.1713 15.4283 24.3183 15.6216C24.4653 15.815 24.5273 16.0572 24.4906 16.295C24.4539 16.5328 24.3216 16.7466 24.1227 16.8896L16.5542 22.3235C16.3937 22.4386 16.1994 22.5005 16 22.5001Z" fill="#7AE229"/>
</g>
<defs>
<clipPath id="clip0_60639_967">
<rect width="17" height="12" fill="white" transform="translate(7.5 10.5)"/>
</clipPath>
</defs>
</svg>
