<svg width="173" height="61" viewBox="0 0 173 61" fill="none" xmlns="http://www.w3.org/2000/svg">
<path d="M0.202504 47V2.63636H9.58212V39.2667H28.6013V47H0.202504ZM49.6729 47.6499C46.3081 47.6499 43.3982 46.935 40.9432 45.5053C38.5026 44.0612 36.618 42.0539 35.2894 39.4833C33.9608 36.8983 33.2965 33.9018 33.2965 30.4936C33.2965 27.0566 33.9608 24.0528 35.2894 21.4822C36.618 18.8973 38.5026 16.8899 40.9432 15.4602C43.3982 14.0161 46.3081 13.294 49.6729 13.294C53.0378 13.294 55.9405 14.0161 58.381 15.4602C60.8361 16.8899 62.7279 18.8973 64.0565 21.4822C65.3851 24.0528 66.0494 27.0566 66.0494 30.4936C66.0494 33.9018 65.3851 36.8983 64.0565 39.4833C62.7279 42.0539 60.8361 44.0612 58.381 45.5053C55.9405 46.935 53.0378 47.6499 49.6729 47.6499ZM49.7163 40.5014C51.247 40.5014 52.5251 40.0682 53.5504 39.2017C54.5758 38.3208 55.3484 37.1222 55.8683 35.6058C56.4026 34.0895 56.6697 32.3638 56.6697 30.4286C56.6697 28.4935 56.4026 26.7678 55.8683 25.2514C55.3484 23.7351 54.5758 22.5365 53.5504 21.6555C52.5251 20.7746 51.247 20.3342 49.7163 20.3342C48.171 20.3342 46.8713 20.7746 45.8171 21.6555C44.7773 22.5365 43.9903 23.7351 43.456 25.2514C42.9361 26.7678 42.6761 28.4935 42.6761 30.4286C42.6761 32.3638 42.9361 34.0895 43.456 35.6058C43.9903 37.1222 44.7773 38.3208 45.8171 39.2017C46.8713 40.0682 48.171 40.5014 49.7163 40.5014ZM87.0398 60.1705C84.0504 60.1705 81.4871 59.7589 79.3498 58.9357C77.2269 58.127 75.5373 57.0223 74.2809 55.6214C73.0245 54.2206 72.2086 52.6465 71.8331 50.8991L80.3679 49.7511C80.6278 50.4154 81.0394 51.0363 81.6026 51.614C82.1658 52.1916 82.9096 52.6538 83.8338 53.0004C84.7725 53.3614 85.9134 53.5419 87.2564 53.5419C89.2637 53.5419 90.9173 53.0509 92.217 52.0689C93.5311 51.1013 94.1882 49.4767 94.1882 47.195V41.108H93.7983C93.3939 42.0322 92.7874 42.9059 91.9787 43.729C91.17 44.5522 90.1302 45.2237 88.8594 45.7436C87.5885 46.2635 86.0722 46.5234 84.3104 46.5234C81.812 46.5234 79.5375 45.9458 77.4869 44.7905C75.4506 43.6207 73.826 41.8372 72.6129 39.44C71.4143 37.0283 70.815 33.9812 70.815 30.2986C70.815 26.5295 71.4287 23.3813 72.6562 20.854C73.8838 18.3268 75.5156 16.435 77.5518 15.1786C79.6025 13.9222 81.8481 13.294 84.2887 13.294C86.1516 13.294 87.7113 13.6117 88.9677 14.2472C90.2241 14.8681 91.235 15.648 92.0004 16.5866C92.7802 17.5109 93.3795 18.4207 93.7983 19.316H94.1449V13.7273H103.308V47.3249C103.308 50.1554 102.615 52.5238 101.228 54.43C99.842 56.3363 97.9213 57.766 95.4663 58.7191C93.0257 59.6867 90.2169 60.1705 87.0398 60.1705ZM87.2347 39.5916C88.7222 39.5916 89.9786 39.2234 91.0039 38.4869C92.0437 37.7359 92.838 36.6673 93.3867 35.2809C93.9499 33.8801 94.2315 32.2049 94.2315 30.2553C94.2315 28.3058 93.9572 26.6161 93.4084 25.1864C92.8596 23.7423 92.0653 22.6231 91.0256 21.8288C89.9858 21.0346 88.7222 20.6374 87.2347 20.6374C85.7184 20.6374 84.4403 21.049 83.4006 21.8722C82.3608 22.6809 81.5737 23.8073 81.0394 25.2514C80.5051 26.6955 80.2379 28.3635 80.2379 30.2553C80.2379 32.176 80.5051 33.8368 81.0394 35.2376C81.5882 36.6239 82.3752 37.6998 83.4006 38.4652C84.4403 39.2161 85.7184 39.5916 87.2347 39.5916ZM124.769 47V13.7273H133.997V47H124.769ZM129.405 9.43821C128.033 9.43821 126.856 8.98331 125.874 8.07351C124.907 7.14926 124.423 6.04451 124.423 4.75923C124.423 3.4884 124.907 2.39808 125.874 1.48828C126.856 0.564037 128.033 0.101915 129.405 0.101915C130.777 0.101915 131.947 0.564037 132.914 1.48828C133.896 2.39808 134.387 3.4884 134.387 4.75923C134.387 6.04451 133.896 7.14926 132.914 8.07351C131.947 8.98331 130.777 9.43821 129.405 9.43821ZM150.618 27.7642V47H141.39V13.7273H150.184V19.5977H150.574C151.311 17.6625 152.545 16.1317 154.278 15.0053C156.011 13.8645 158.113 13.294 160.582 13.294C162.893 13.294 164.907 13.7995 166.626 14.8104C168.344 15.8213 169.68 17.2654 170.633 19.1428C171.586 21.0057 172.063 23.2296 172.063 25.8146V47H162.835V27.4609C162.849 25.4247 162.329 23.8362 161.275 22.6953C160.221 21.54 158.77 20.9624 156.921 20.9624C155.679 20.9624 154.582 21.2295 153.629 21.7638C152.69 22.2982 151.953 23.078 151.419 24.1033C150.899 25.1142 150.632 26.3345 150.618 27.7642Z" fill="black"/>
</svg>
