<svg width="363" height="46" viewBox="0 0 363 46" fill="none" xmlns="http://www.w3.org/2000/svg">
<path d="M10.5025 44.5H0.45135L15.7663 0.136362H27.8537L43.147 44.5H33.0959L21.9833 10.2741H21.6367L10.5025 44.5ZM9.87429 27.0621H33.6158V34.3839H9.87429V27.0621ZM59.0252 45.0415C56.498 45.0415 54.209 44.3917 52.1584 43.092C50.1222 41.7778 48.5047 39.8499 47.3061 37.3082C46.1219 34.7521 45.5298 31.6184 45.5298 27.907C45.5298 24.0945 46.1436 20.9246 47.3711 18.3974C48.5986 15.8557 50.2305 13.9567 52.2667 12.7003C54.3174 11.4295 56.563 10.794 59.0036 10.794C60.8665 10.794 62.4189 11.1117 63.6609 11.7472C64.9173 12.3681 65.9281 13.148 66.6935 14.0866C67.4734 15.0109 68.0655 15.9207 68.4698 16.816H68.7514V0.136362H77.9577V44.5H68.8597V39.1712H68.4698C68.0366 40.0954 67.4228 41.0124 66.6286 41.9222C65.8487 42.8176 64.8306 43.5613 63.5742 44.1534C62.3323 44.7455 60.8159 45.0415 59.0252 45.0415ZM61.9496 37.6982C63.437 37.6982 64.6934 37.2938 65.7188 36.4851C66.7585 35.6619 67.5528 34.5138 68.1016 33.0408C68.6648 31.5678 68.9464 29.8421 68.9464 27.8636C68.9464 25.8852 68.672 24.1667 68.1232 22.7081C67.5745 21.2495 66.7802 20.1231 65.7404 19.3288C64.7006 18.5346 63.437 18.1374 61.9496 18.1374C60.4332 18.1374 59.1552 18.549 58.1154 19.3722C57.0756 20.1953 56.2886 21.3362 55.7543 22.7947C55.2199 24.2533 54.9528 25.9429 54.9528 27.8636C54.9528 29.7988 55.2199 31.5101 55.7543 32.9975C56.303 34.4705 57.0901 35.6258 58.1154 36.4634C59.1552 37.2866 60.4332 37.6982 61.9496 37.6982ZM97.8055 45.0415C95.2783 45.0415 92.9893 44.3917 90.9387 43.092C88.9024 41.7778 87.285 39.8499 86.0864 37.3082C84.9022 34.7521 84.3101 31.6184 84.3101 27.907C84.3101 24.0945 84.9239 20.9246 86.1514 18.3974C87.3789 15.8557 89.0107 13.9567 91.047 12.7003C93.0976 11.4295 95.3432 10.794 97.7838 10.794C99.6468 10.794 101.199 11.1117 102.441 11.7472C103.698 12.3681 104.708 13.148 105.474 14.0866C106.254 15.0109 106.846 15.9207 107.25 16.816H107.532V0.136362H116.738V44.5H107.64V39.1712H107.25C106.817 40.0954 106.203 41.0124 105.409 41.9222C104.629 42.8176 103.611 43.5613 102.354 44.1534C101.113 44.7455 99.5962 45.0415 97.8055 45.0415ZM100.73 37.6982C102.217 37.6982 103.474 37.2938 104.499 36.4851C105.539 35.6619 106.333 34.5138 106.882 33.0408C107.445 31.5678 107.727 29.8421 107.727 27.8636C107.727 25.8852 107.452 24.1667 106.903 22.7081C106.355 21.2495 105.56 20.1231 104.521 19.3288C103.481 18.5346 102.217 18.1374 100.73 18.1374C99.2135 18.1374 97.9355 18.549 96.8957 19.3722C95.8559 20.1953 95.0689 21.3362 94.5345 22.7947C94.0002 24.2533 93.733 25.9429 93.733 27.8636C93.733 29.7988 94.0002 31.5101 94.5345 32.9975C95.0833 34.4705 95.8704 35.6258 96.8957 36.4634C97.9355 37.2866 99.2135 37.6982 100.73 37.6982ZM153.477 45.1499C150.069 45.1499 147.137 44.4278 144.682 42.9837C142.241 41.5251 140.364 39.5033 139.05 36.9183C137.75 34.3333 137.1 31.3584 137.1 27.9936C137.1 24.5855 137.757 21.5961 139.071 19.0256C140.4 16.4406 142.285 14.426 144.725 12.9819C147.166 11.5233 150.069 10.794 153.433 10.794C156.336 10.794 158.878 11.3211 161.058 12.3754C163.239 13.4296 164.965 14.9098 166.236 16.816C167.506 18.7223 168.207 20.9607 168.337 23.5312H159.629C159.383 21.8705 158.733 20.5347 157.679 19.5238C156.639 18.4985 155.275 17.9858 153.585 17.9858C152.155 17.9858 150.906 18.3757 149.837 19.1555C148.783 19.9209 147.96 21.0401 147.368 22.5131C146.776 23.9862 146.48 25.7696 146.48 27.8636C146.48 29.9865 146.769 31.7917 147.346 33.2791C147.938 34.7666 148.769 35.9002 149.837 36.68C150.906 37.4599 152.155 37.8498 153.585 37.8498C154.639 37.8498 155.585 37.6332 156.423 37.1999C157.275 36.7667 157.975 36.1385 158.524 35.3153C159.087 34.4777 159.455 33.4741 159.629 32.3043H168.337C168.192 34.846 167.499 37.0844 166.257 39.0195C165.03 40.9402 163.333 42.4421 161.167 43.5252C159 44.6083 156.437 45.1499 153.477 45.1499ZM189.278 45.1499C185.914 45.1499 183.004 44.435 180.549 43.0053C178.108 41.5612 176.223 39.5539 174.895 36.9833C173.566 34.3983 172.902 31.4018 172.902 27.9936C172.902 24.5566 173.566 21.5528 174.895 18.9822C176.223 16.3973 178.108 14.3899 180.549 12.9602C183.004 11.5161 185.914 10.794 189.278 10.794C192.643 10.794 195.546 11.5161 197.987 12.9602C200.442 14.3899 202.333 16.3973 203.662 18.9822C204.991 21.5528 205.655 24.5566 205.655 27.9936C205.655 31.4018 204.991 34.3983 203.662 36.9833C202.333 39.5539 200.442 41.5612 197.987 43.0053C195.546 44.435 192.643 45.1499 189.278 45.1499ZM189.322 38.0014C190.853 38.0014 192.131 37.5682 193.156 36.7017C194.181 35.8208 194.954 34.6222 195.474 33.1058C196.008 31.5895 196.275 29.8638 196.275 27.9286C196.275 25.9935 196.008 24.2678 195.474 22.7514C194.954 21.2351 194.181 20.0365 193.156 19.1555C192.131 18.2746 190.853 17.8342 189.322 17.8342C187.777 17.8342 186.477 18.2746 185.423 19.1555C184.383 20.0365 183.596 21.2351 183.061 22.7514C182.542 24.2678 182.282 25.9935 182.282 27.9286C182.282 29.8638 182.542 31.5895 183.061 33.1058C183.596 34.6222 184.383 35.8208 185.423 36.7017C186.477 37.5682 187.777 38.0014 189.322 38.0014ZM220.883 25.2642V44.5H211.655V11.2273H220.45V17.0977H220.84C221.576 15.1625 222.811 13.6317 224.544 12.5053C226.277 11.3645 228.378 10.794 230.848 10.794C233.158 10.794 235.173 11.2995 236.891 12.3104C238.61 13.3213 239.946 14.7654 240.899 16.6428C241.852 18.5057 242.328 20.7296 242.328 23.3146V44.5H233.1V24.9609C233.115 22.9247 232.595 21.3362 231.541 20.1953C230.487 19.04 229.035 18.4624 227.187 18.4624C225.945 18.4624 224.847 18.7295 223.894 19.2638C222.955 19.7982 222.219 20.578 221.685 21.6033C221.165 22.6142 220.898 23.8345 220.883 25.2642ZM267.299 11.2273V18.1591H247.262V11.2273H267.299ZM251.811 3.25568H261.039V34.2756C261.039 35.1276 261.169 35.7919 261.429 36.2685C261.689 36.7306 262.05 37.0555 262.512 37.2433C262.989 37.431 263.537 37.5249 264.158 37.5249C264.592 37.5249 265.025 37.4888 265.458 37.4165C265.891 37.3299 266.223 37.2649 266.454 37.2216L267.906 44.0884C267.444 44.2328 266.794 44.3989 265.956 44.5866C265.119 44.7888 264.101 44.9116 262.902 44.9549C260.678 45.0415 258.728 44.7455 257.053 44.0668C255.392 43.388 254.1 42.3338 253.176 40.9041C252.251 39.4744 251.797 37.6693 251.811 35.4886V3.25568ZM282.798 45.1282C280.676 45.1282 278.784 44.7599 277.123 44.0234C275.462 43.2725 274.148 42.1677 273.18 40.7092C272.227 39.2362 271.751 37.4021 271.751 35.207C271.751 33.3585 272.09 31.8061 272.769 30.5497C273.448 29.2933 274.372 28.2824 275.542 27.517C276.711 26.7517 278.04 26.174 279.527 25.7841C281.029 25.3942 282.603 25.1198 284.25 24.9609C286.185 24.7588 287.745 24.571 288.929 24.3977C290.113 24.21 290.972 23.9356 291.506 23.5746C292.041 23.2135 292.308 22.6792 292.308 21.9716V21.8416C292.308 20.4697 291.875 19.4083 291.008 18.6573C290.156 17.9064 288.943 17.5309 287.369 17.5309C285.708 17.5309 284.387 17.8991 283.405 18.6357C282.423 19.3577 281.773 20.2675 281.455 21.3651L272.921 20.6719C273.354 18.6501 274.206 16.9027 275.477 15.4297C276.747 13.9422 278.387 12.8014 280.394 12.0071C282.416 11.1984 284.755 10.794 287.412 10.794C289.261 10.794 291.03 11.0107 292.72 11.4439C294.424 11.8771 295.933 12.5486 297.247 13.4584C298.575 14.3683 299.622 15.538 300.388 16.9677C301.153 18.3829 301.536 20.0798 301.536 22.0582V44.5H292.785V39.886H292.525C291.99 40.9258 291.275 41.8428 290.38 42.6371C289.485 43.4169 288.409 44.0307 287.152 44.4783C285.896 44.9116 284.445 45.1282 282.798 45.1282ZM285.441 38.7596C286.799 38.7596 287.997 38.4924 289.037 37.9581C290.077 37.4093 290.893 36.6728 291.485 35.7486C292.077 34.8243 292.373 33.7773 292.373 32.6076V29.0767C292.084 29.2644 291.687 29.4377 291.182 29.5966C290.691 29.741 290.135 29.8782 289.514 30.0082C288.893 30.1237 288.272 30.232 287.651 30.3331C287.03 30.4197 286.466 30.4992 285.961 30.5714C284.878 30.7302 283.932 30.983 283.123 31.3295C282.315 31.6761 281.686 32.1455 281.239 32.7376C280.791 33.3152 280.567 34.0373 280.567 34.9038C280.567 36.1602 281.022 37.1205 281.932 37.7848C282.856 38.4347 284.026 38.7596 285.441 38.7596ZM323.729 45.1499C320.32 45.1499 317.389 44.4278 314.934 42.9837C312.493 41.5251 310.616 39.5033 309.302 36.9183C308.002 34.3333 307.352 31.3584 307.352 27.9936C307.352 24.5855 308.009 21.5961 309.323 19.0256C310.652 16.4406 312.537 14.426 314.977 12.9819C317.418 11.5233 320.32 10.794 323.685 10.794C326.588 10.794 329.13 11.3211 331.31 12.3754C333.491 13.4296 335.217 14.9098 336.487 16.816C337.758 18.7223 338.459 20.9607 338.589 23.5312H329.881C329.635 21.8705 328.985 20.5347 327.931 19.5238C326.891 18.4985 325.527 17.9858 323.837 17.9858C322.407 17.9858 321.158 18.3757 320.089 19.1555C319.035 19.9209 318.212 21.0401 317.62 22.5131C317.028 23.9862 316.732 25.7696 316.732 27.8636C316.732 29.9865 317.021 31.7917 317.598 33.2791C318.19 34.7666 319.021 35.9002 320.089 36.68C321.158 37.4599 322.407 37.8498 323.837 37.8498C324.891 37.8498 325.837 37.6332 326.675 37.1999C327.527 36.7667 328.227 36.1385 328.776 35.3153C329.339 34.4777 329.707 33.4741 329.881 32.3043H338.589C338.444 34.846 337.751 37.0844 336.509 39.0195C335.282 40.9402 333.585 42.4421 331.419 43.5252C329.252 44.6083 326.689 45.1499 323.729 45.1499ZM362.195 11.2273V18.1591H342.157V11.2273H362.195ZM346.706 3.25568H355.934V34.2756C355.934 35.1276 356.064 35.7919 356.324 36.2685C356.584 36.7306 356.945 37.0555 357.407 37.2433C357.884 37.431 358.433 37.5249 359.054 37.5249C359.487 37.5249 359.92 37.4888 360.354 37.4165C360.787 37.3299 361.119 37.2649 361.35 37.2216L362.801 44.0884C362.339 44.2328 361.689 44.3989 360.852 44.5866C360.014 44.7888 358.996 44.9116 357.797 44.9549C355.573 45.0415 353.624 44.7455 351.949 44.0668C350.288 43.388 348.995 42.3338 348.071 40.9041C347.147 39.4744 346.692 37.6693 346.706 35.4886V3.25568Z" fill="white"/>
</svg>
