<svg width="453" height="594" viewBox="0 0 453 594" fill="none" xmlns="http://www.w3.org/2000/svg">
<rect width="453" height="594" fill="#2A3647"/>
<path d="M49.8558 313.5V269.136H79.7493V276.87H59.2354V287.441H78.2113V295.174H59.2354V305.767H79.8359V313.5H49.8558ZM99.2938 314.042C96.7665 314.042 94.4776 313.392 92.4269 312.092C90.3907 310.778 88.7733 308.85 87.5747 306.308C86.3905 303.752 85.7984 300.618 85.7984 296.907C85.7984 293.094 86.4121 289.925 87.6396 287.397C88.8672 284.856 90.499 282.957 92.5352 281.7C94.5859 280.429 96.8315 279.794 99.2721 279.794C101.135 279.794 102.687 280.112 103.929 280.747C105.186 281.368 106.197 282.148 106.962 283.087C107.742 284.011 108.334 284.921 108.738 285.816H109.02V269.136H118.226V313.5H109.128V308.171H108.738C108.305 309.095 107.691 310.012 106.897 310.922C106.117 311.818 105.099 312.561 103.843 313.153C102.601 313.746 101.084 314.042 99.2938 314.042ZM102.218 306.698C103.706 306.698 104.962 306.294 105.987 305.485C107.027 304.662 107.821 303.514 108.37 302.041C108.933 300.568 109.215 298.842 109.215 296.864C109.215 294.885 108.941 293.167 108.392 291.708C107.843 290.25 107.049 289.123 106.009 288.329C104.969 287.535 103.706 287.137 102.218 287.137C100.702 287.137 99.4237 287.549 98.384 288.372C97.3442 289.195 96.5571 290.336 96.0228 291.795C95.4885 293.253 95.2213 294.943 95.2213 296.864C95.2213 298.799 95.4885 300.51 96.0228 301.998C96.5716 303.471 97.3586 304.626 98.384 305.463C99.4237 306.287 100.702 306.698 102.218 306.698ZM125.813 313.5V280.227H135.041V313.5H125.813ZM130.449 275.938C129.077 275.938 127.9 275.483 126.918 274.574C125.951 273.649 125.467 272.545 125.467 271.259C125.467 269.988 125.951 268.898 126.918 267.988C127.9 267.064 129.077 266.602 130.449 266.602C131.821 266.602 132.991 267.064 133.958 267.988C134.94 268.898 135.431 269.988 135.431 271.259C135.431 272.545 134.94 273.649 133.958 274.574C132.991 275.483 131.821 275.938 130.449 275.938ZM160.131 280.227V287.159H140.094V280.227H160.131ZM144.643 272.256H153.871V303.276C153.871 304.128 154.001 304.792 154.261 305.268C154.521 305.731 154.882 306.056 155.344 306.243C155.821 306.431 156.369 306.525 156.99 306.525C157.424 306.525 157.857 306.489 158.29 306.417C158.723 306.33 159.055 306.265 159.286 306.222L160.738 313.088C160.276 313.233 159.626 313.399 158.788 313.587C157.951 313.789 156.933 313.912 155.734 313.955C153.51 314.042 151.56 313.746 149.885 313.067C148.224 312.388 146.932 311.334 146.008 309.904C145.083 308.474 144.629 306.669 144.643 304.489V272.256ZM195.294 314.15C191.886 314.15 188.954 313.428 186.499 311.984C184.059 310.525 182.181 308.503 180.867 305.918C179.567 303.333 178.918 300.358 178.918 296.994C178.918 293.585 179.575 290.596 180.889 288.026C182.217 285.441 184.102 283.426 186.543 281.982C188.983 280.523 191.886 279.794 195.251 279.794C198.153 279.794 200.695 280.321 202.876 281.375C205.056 282.43 206.782 283.91 208.053 285.816C209.324 287.722 210.024 289.961 210.154 292.531H201.446C201.201 290.871 200.551 289.535 199.496 288.524C198.457 287.498 197.092 286.986 195.402 286.986C193.973 286.986 192.723 287.376 191.655 288.156C190.601 288.921 189.777 290.04 189.185 291.513C188.593 292.986 188.297 294.77 188.297 296.864C188.297 298.987 188.586 300.792 189.164 302.279C189.756 303.767 190.586 304.9 191.655 305.68C192.723 306.46 193.973 306.85 195.402 306.85C196.457 306.85 197.402 306.633 198.24 306.2C199.092 305.767 199.792 305.138 200.341 304.315C200.904 303.478 201.273 302.474 201.446 301.304H210.154C210.01 303.846 209.317 306.084 208.075 308.02C206.847 309.94 205.15 311.442 202.984 312.525C200.818 313.608 198.254 314.15 195.294 314.15ZM231.096 314.15C227.731 314.15 224.821 313.435 222.366 312.005C219.925 310.561 218.041 308.554 216.712 305.983C215.384 303.398 214.719 300.402 214.719 296.994C214.719 293.557 215.384 290.553 216.712 287.982C218.041 285.397 219.925 283.39 222.366 281.96C224.821 280.516 227.731 279.794 231.096 279.794C234.461 279.794 237.363 280.516 239.804 281.96C242.259 283.39 244.151 285.397 245.479 287.982C246.808 290.553 247.472 293.557 247.472 296.994C247.472 300.402 246.808 303.398 245.479 305.983C244.151 308.554 242.259 310.561 239.804 312.005C237.363 313.435 234.461 314.15 231.096 314.15ZM231.139 307.001C232.67 307.001 233.948 306.568 234.973 305.702C235.999 304.821 236.771 303.622 237.291 302.106C237.825 300.589 238.093 298.864 238.093 296.929C238.093 294.993 237.825 293.268 237.291 291.751C236.771 290.235 235.999 289.036 234.973 288.156C233.948 287.275 232.67 286.834 231.139 286.834C229.594 286.834 228.294 287.275 227.24 288.156C226.2 289.036 225.413 290.235 224.879 291.751C224.359 293.268 224.099 294.993 224.099 296.929C224.099 298.864 224.359 300.589 224.879 302.106C225.413 303.622 226.2 304.821 227.24 305.702C228.294 306.568 229.594 307.001 231.139 307.001ZM262.701 294.264V313.5H253.473V280.227H262.267V286.098H262.657C263.394 284.163 264.628 282.632 266.361 281.505C268.094 280.364 270.196 279.794 272.665 279.794C274.976 279.794 276.99 280.299 278.709 281.31C280.427 282.321 281.763 283.765 282.716 285.643C283.669 287.506 284.146 289.73 284.146 292.315V313.5H274.918V293.961C274.932 291.925 274.412 290.336 273.358 289.195C272.304 288.04 270.853 287.462 269.004 287.462C267.762 287.462 266.665 287.73 265.712 288.264C264.773 288.798 264.036 289.578 263.502 290.603C262.982 291.614 262.715 292.835 262.701 294.264ZM309.117 280.227V287.159H289.079V280.227H309.117ZM293.628 272.256H302.856V303.276C302.856 304.128 302.986 304.792 303.246 305.268C303.506 305.731 303.867 306.056 304.329 306.243C304.806 306.431 305.355 306.525 305.976 306.525C306.409 306.525 306.842 306.489 307.275 306.417C307.709 306.33 308.041 306.265 308.272 306.222L309.723 313.088C309.261 313.233 308.611 313.399 307.774 313.587C306.936 313.789 305.918 313.912 304.719 313.955C302.495 314.042 300.546 313.746 298.871 313.067C297.21 312.388 295.917 311.334 294.993 309.904C294.069 308.474 293.614 306.669 293.628 304.489V272.256ZM324.616 314.128C322.493 314.128 320.601 313.76 318.94 313.023C317.28 312.272 315.965 311.168 314.998 309.709C314.045 308.236 313.568 306.402 313.568 304.207C313.568 302.359 313.908 300.806 314.586 299.55C315.265 298.293 316.189 297.282 317.359 296.517C318.529 295.752 319.857 295.174 321.345 294.784C322.847 294.394 324.421 294.12 326.067 293.961C328.002 293.759 329.562 293.571 330.746 293.398C331.93 293.21 332.79 292.936 333.324 292.575C333.858 292.214 334.125 291.679 334.125 290.972V290.842C334.125 289.47 333.692 288.408 332.826 287.657C331.974 286.906 330.761 286.531 329.186 286.531C327.526 286.531 326.204 286.899 325.222 287.636C324.24 288.358 323.59 289.268 323.273 290.365L314.738 289.672C315.171 287.65 316.023 285.903 317.294 284.43C318.565 282.942 320.204 281.801 322.211 281.007C324.233 280.198 326.573 279.794 329.23 279.794C331.078 279.794 332.847 280.011 334.537 280.444C336.241 280.877 337.75 281.549 339.064 282.458C340.393 283.368 341.44 284.538 342.205 285.968C342.971 287.383 343.353 289.08 343.353 291.058V313.5H334.602V308.886H334.342C333.808 309.926 333.093 310.843 332.197 311.637C331.302 312.417 330.226 313.031 328.97 313.478C327.713 313.912 326.262 314.128 324.616 314.128ZM327.259 307.76C328.616 307.76 329.815 307.492 330.854 306.958C331.894 306.409 332.71 305.673 333.302 304.749C333.894 303.824 334.19 302.777 334.19 301.608V298.077C333.902 298.264 333.504 298.438 332.999 298.597C332.508 298.741 331.952 298.878 331.331 299.008C330.71 299.124 330.089 299.232 329.468 299.333C328.847 299.42 328.284 299.499 327.778 299.571C326.695 299.73 325.749 299.983 324.941 300.33C324.132 300.676 323.504 301.145 323.056 301.738C322.608 302.315 322.385 303.037 322.385 303.904C322.385 305.16 322.839 306.121 323.749 306.785C324.674 307.435 325.843 307.76 327.259 307.76ZM365.546 314.15C362.138 314.15 359.206 313.428 356.751 311.984C354.311 310.525 352.433 308.503 351.119 305.918C349.819 303.333 349.17 300.358 349.17 296.994C349.17 293.585 349.827 290.596 351.141 288.026C352.469 285.441 354.354 283.426 356.795 281.982C359.235 280.523 362.138 279.794 365.503 279.794C368.405 279.794 370.947 280.321 373.128 281.375C375.308 282.43 377.034 283.91 378.305 285.816C379.576 287.722 380.276 289.961 380.406 292.531H371.698C371.452 290.871 370.803 289.535 369.748 288.524C368.709 287.498 367.344 286.986 365.654 286.986C364.225 286.986 362.975 287.376 361.907 288.156C360.853 288.921 360.029 290.04 359.437 291.513C358.845 292.986 358.549 294.77 358.549 296.864C358.549 298.987 358.838 300.792 359.416 302.279C360.008 303.767 360.838 304.9 361.907 305.68C362.975 306.46 364.225 306.85 365.654 306.85C366.709 306.85 367.654 306.633 368.492 306.2C369.344 305.767 370.044 305.138 370.593 304.315C371.156 303.478 371.525 302.474 371.698 301.304H380.406C380.262 303.846 379.568 306.084 378.327 308.02C377.099 309.94 375.402 311.442 373.236 312.525C371.07 313.608 368.506 314.15 365.546 314.15ZM404.012 280.227V287.159H383.975V280.227H404.012ZM388.524 272.256H397.752V303.276C397.752 304.128 397.882 304.792 398.142 305.268C398.402 305.731 398.763 306.056 399.225 306.243C399.701 306.431 400.25 306.525 400.871 306.525C401.304 306.525 401.738 306.489 402.171 306.417C402.604 306.33 402.936 306.265 403.167 306.222L404.619 313.088C404.157 313.233 403.507 313.399 402.669 313.587C401.832 313.789 400.813 313.912 399.615 313.955C397.391 314.042 395.441 313.746 393.766 313.067C392.105 312.388 390.813 311.334 389.889 309.904C388.964 308.474 388.509 306.669 388.524 304.489V272.256Z" fill="white"/>
<path d="M136 339.5H46" stroke="#29ABE2" stroke-width="3" stroke-linecap="round"/>
<path d="M84.1394 154H72.1931V167.896H84.1394V154Z" fill="white"/>
<path d="M72.1931 179.197H84.1394V198.795C84.194 203.511 82.8665 208.136 80.3258 212.084C77.8171 215.919 72.9742 220.483 64.0145 220.483C54.2553 220.483 48.5671 215.817 45.4978 213.26L53.0331 203.862C56.0289 206.335 58.9144 208.37 64.0605 208.37C67.9568 208.37 69.5098 206.765 70.4196 205.365C71.6563 203.42 72.2961 201.147 72.2574 198.832L72.1931 179.197Z" fill="white"/>
<path d="M66.1005 170.425H54.1542V182.557H66.1005V170.425Z" fill="#29ABE2"/>
<path d="M90.3974 214.79C90.3974 217.375 89.1017 218.766 87.2913 218.766C85.481 218.766 84.2956 217.114 84.2956 214.921C84.2956 212.728 85.5178 210.992 87.3924 210.992C89.2671 210.992 90.3974 212.7 90.3974 214.79ZM85.6832 214.893C85.6832 216.451 86.2989 217.599 87.3557 217.599C88.4125 217.599 89.0098 216.386 89.0098 214.8C89.0098 213.409 88.4584 212.103 87.3557 212.103C86.2529 212.103 85.6832 213.362 85.6832 214.893Z" fill="white"/>
<path d="M92.7682 211.104V218.644H91.4449V211.104H92.7682Z" fill="white"/>
<path d="M94.2018 218.644V211.104H95.6722L97.2527 214.212C97.6596 215.024 98.0216 215.859 98.3371 216.713C98.2544 215.779 98.2176 214.706 98.2176 213.512V211.104H99.4306V218.644H98.0614L96.4624 215.471C96.0391 214.638 95.6618 213.781 95.3321 212.905C95.3321 213.838 95.3965 214.893 95.3965 216.19V218.635L94.2018 218.644Z" fill="white"/>
</svg>
