<svg width="463" height="594" viewBox="0 0 463 594" fill="none" xmlns="http://www.w3.org/2000/svg">
<rect width="463" height="594" fill="#2A3647"/>
<path d="M57.5025 291.5H47.4513L62.7663 247.136H74.8537L90.147 291.5H80.0959L68.9833 257.274H68.6367L57.5025 291.5ZM56.8743 274.062H80.6158V281.384H56.8743V274.062ZM106.025 292.042C103.498 292.042 101.209 291.392 99.1584 290.092C97.1222 288.778 95.5047 286.85 94.3061 284.308C93.1219 281.752 92.5298 278.618 92.5298 274.907C92.5298 271.094 93.1436 267.925 94.3711 265.397C95.5986 262.856 97.2305 260.957 99.2667 259.7C101.317 258.429 103.563 257.794 106.004 257.794C107.866 257.794 109.419 258.112 110.661 258.747C111.917 259.368 112.928 260.148 113.694 261.087C114.473 262.011 115.065 262.921 115.47 263.816H115.751V247.136H124.958V291.5H115.86V286.171H115.47C115.037 287.095 114.423 288.012 113.629 288.922C112.849 289.818 111.831 290.561 110.574 291.153C109.332 291.746 107.816 292.042 106.025 292.042ZM108.95 284.698C110.437 284.698 111.693 284.294 112.719 283.485C113.759 282.662 114.553 281.514 115.102 280.041C115.665 278.568 115.946 276.842 115.946 274.864C115.946 272.885 115.672 271.167 115.123 269.708C114.574 268.25 113.78 267.123 112.74 266.329C111.701 265.535 110.437 265.137 108.95 265.137C107.433 265.137 106.155 265.549 105.115 266.372C104.076 267.195 103.289 268.336 102.754 269.795C102.22 271.253 101.953 272.943 101.953 274.864C101.953 276.799 102.22 278.51 102.754 279.998C103.303 281.471 104.09 282.626 105.115 283.463C106.155 284.287 107.433 284.698 108.95 284.698ZM144.805 292.042C142.278 292.042 139.989 291.392 137.939 290.092C135.902 288.778 134.285 286.85 133.086 284.308C131.902 281.752 131.31 278.618 131.31 274.907C131.31 271.094 131.924 267.925 133.151 265.397C134.379 262.856 136.011 260.957 138.047 259.7C140.098 258.429 142.343 257.794 144.784 257.794C146.647 257.794 148.199 258.112 149.441 258.747C150.698 259.368 151.708 260.148 152.474 261.087C153.254 262.011 153.846 262.921 154.25 263.816H154.532V247.136H163.738V291.5H154.64V286.171H154.25C153.817 287.095 153.203 288.012 152.409 288.922C151.629 289.818 150.611 290.561 149.354 291.153C148.113 291.746 146.596 292.042 144.805 292.042ZM147.73 284.698C149.217 284.698 150.474 284.294 151.499 283.485C152.539 282.662 153.333 281.514 153.882 280.041C154.445 278.568 154.727 276.842 154.727 274.864C154.727 272.885 154.452 271.167 153.903 269.708C153.355 268.25 152.56 267.123 151.521 266.329C150.481 265.535 149.217 265.137 147.73 265.137C146.214 265.137 144.935 265.549 143.896 266.372C142.856 267.195 142.069 268.336 141.535 269.795C141 271.253 140.733 272.943 140.733 274.864C140.733 276.799 141 278.51 141.535 279.998C142.083 281.471 142.87 282.626 143.896 283.463C144.935 284.287 146.214 284.698 147.73 284.698ZM200.477 292.15C197.069 292.15 194.137 291.428 191.682 289.984C189.241 288.525 187.364 286.503 186.05 283.918C184.75 281.333 184.1 278.358 184.1 274.994C184.1 271.585 184.757 268.596 186.071 266.026C187.4 263.441 189.285 261.426 191.725 259.982C194.166 258.523 197.069 257.794 200.433 257.794C203.336 257.794 205.878 258.321 208.058 259.375C210.239 260.43 211.965 261.91 213.236 263.816C214.506 265.722 215.207 267.961 215.337 270.531H206.629C206.383 268.871 205.733 267.535 204.679 266.524C203.639 265.498 202.275 264.986 200.585 264.986C199.155 264.986 197.906 265.376 196.837 266.156C195.783 266.921 194.96 268.04 194.368 269.513C193.776 270.986 193.48 272.77 193.48 274.864C193.48 276.987 193.769 278.792 194.346 280.279C194.938 281.767 195.769 282.9 196.837 283.68C197.906 284.46 199.155 284.85 200.585 284.85C201.639 284.85 202.585 284.633 203.423 284.2C204.275 283.767 204.975 283.138 205.524 282.315C206.087 281.478 206.455 280.474 206.629 279.304H215.337C215.192 281.846 214.499 284.084 213.257 286.02C212.03 287.94 210.333 289.442 208.167 290.525C206 291.608 203.437 292.15 200.477 292.15ZM236.278 292.15C232.914 292.15 230.004 291.435 227.549 290.005C225.108 288.561 223.223 286.554 221.895 283.983C220.566 281.398 219.902 278.402 219.902 274.994C219.902 271.557 220.566 268.553 221.895 265.982C223.223 263.397 225.108 261.39 227.549 259.96C230.004 258.516 232.914 257.794 236.278 257.794C239.643 257.794 242.546 258.516 244.987 259.96C247.442 261.39 249.333 263.397 250.662 265.982C251.991 268.553 252.655 271.557 252.655 274.994C252.655 278.402 251.991 281.398 250.662 283.983C249.333 286.554 247.442 288.561 244.987 290.005C242.546 291.435 239.643 292.15 236.278 292.15ZM236.322 285.001C237.853 285.001 239.131 284.568 240.156 283.702C241.181 282.821 241.954 281.622 242.474 280.106C243.008 278.589 243.275 276.864 243.275 274.929C243.275 272.993 243.008 271.268 242.474 269.751C241.954 268.235 241.181 267.036 240.156 266.156C239.131 265.275 237.853 264.834 236.322 264.834C234.777 264.834 233.477 265.275 232.423 266.156C231.383 267.036 230.596 268.235 230.061 269.751C229.542 271.268 229.282 272.993 229.282 274.929C229.282 276.864 229.542 278.589 230.061 280.106C230.596 281.622 231.383 282.821 232.423 283.702C233.477 284.568 234.777 285.001 236.322 285.001ZM267.883 272.264V291.5H258.655V258.227H267.45V264.098H267.84C268.576 262.163 269.811 260.632 271.544 259.505C273.277 258.364 275.378 257.794 277.848 257.794C280.158 257.794 282.173 258.299 283.891 259.31C285.61 260.321 286.946 261.765 287.899 263.643C288.852 265.506 289.328 267.73 289.328 270.315V291.5H280.1V271.961C280.115 269.925 279.595 268.336 278.541 267.195C277.487 266.04 276.035 265.462 274.187 265.462C272.945 265.462 271.847 265.73 270.894 266.264C269.955 266.798 269.219 267.578 268.685 268.603C268.165 269.614 267.898 270.835 267.883 272.264ZM314.299 258.227V265.159H294.262V258.227H314.299ZM298.811 250.256H308.039V281.276C308.039 282.128 308.169 282.792 308.429 283.268C308.689 283.731 309.05 284.056 309.512 284.243C309.989 284.431 310.537 284.525 311.158 284.525C311.592 284.525 312.025 284.489 312.458 284.417C312.891 284.33 313.223 284.265 313.454 284.222L314.906 291.088C314.444 291.233 313.794 291.399 312.956 291.587C312.119 291.789 311.101 291.912 309.902 291.955C307.678 292.042 305.728 291.746 304.053 291.067C302.392 290.388 301.1 289.334 300.176 287.904C299.251 286.474 298.797 284.669 298.811 282.489V250.256ZM329.798 292.128C327.676 292.128 325.784 291.76 324.123 291.023C322.462 290.272 321.148 289.168 320.18 287.709C319.227 286.236 318.751 284.402 318.751 282.207C318.751 280.359 319.09 278.806 319.769 277.55C320.448 276.293 321.372 275.282 322.542 274.517C323.711 273.752 325.04 273.174 326.527 272.784C328.029 272.394 329.603 272.12 331.25 271.961C333.185 271.759 334.745 271.571 335.929 271.398C337.113 271.21 337.972 270.936 338.506 270.575C339.041 270.214 339.308 269.679 339.308 268.972V268.842C339.308 267.47 338.875 266.408 338.008 265.657C337.156 264.906 335.943 264.531 334.369 264.531C332.708 264.531 331.387 264.899 330.405 265.636C329.423 266.358 328.773 267.268 328.455 268.365L319.921 267.672C320.354 265.65 321.206 263.903 322.477 262.43C323.747 260.942 325.387 259.801 327.394 259.007C329.416 258.198 331.755 257.794 334.412 257.794C336.261 257.794 338.03 258.011 339.72 258.444C341.424 258.877 342.933 259.549 344.247 260.458C345.575 261.368 346.622 262.538 347.388 263.968C348.153 265.383 348.536 267.08 348.536 269.058V291.5H339.785V286.886H339.525C338.99 287.926 338.275 288.843 337.38 289.637C336.485 290.417 335.409 291.031 334.152 291.478C332.896 291.912 331.445 292.128 329.798 292.128ZM332.441 285.76C333.799 285.76 334.997 285.492 336.037 284.958C337.077 284.409 337.893 283.673 338.485 282.749C339.077 281.824 339.373 280.777 339.373 279.608V276.077C339.084 276.264 338.687 276.438 338.182 276.597C337.691 276.741 337.135 276.878 336.514 277.008C335.893 277.124 335.272 277.232 334.651 277.333C334.03 277.42 333.466 277.499 332.961 277.571C331.878 277.73 330.932 277.983 330.123 278.33C329.315 278.676 328.686 279.145 328.239 279.738C327.791 280.315 327.567 281.037 327.567 281.904C327.567 283.16 328.022 284.121 328.932 284.785C329.856 285.435 331.026 285.76 332.441 285.76ZM370.729 292.15C367.32 292.15 364.389 291.428 361.934 289.984C359.493 288.525 357.616 286.503 356.302 283.918C355.002 281.333 354.352 278.358 354.352 274.994C354.352 271.585 355.009 268.596 356.323 266.026C357.652 263.441 359.537 261.426 361.977 259.982C364.418 258.523 367.32 257.794 370.685 257.794C373.588 257.794 376.13 258.321 378.31 259.375C380.491 260.43 382.217 261.91 383.487 263.816C384.758 265.722 385.459 267.961 385.589 270.531H376.881C376.635 268.871 375.985 267.535 374.931 266.524C373.891 265.498 372.527 264.986 370.837 264.986C369.407 264.986 368.158 265.376 367.089 266.156C366.035 266.921 365.212 268.04 364.62 269.513C364.028 270.986 363.732 272.77 363.732 274.864C363.732 276.987 364.021 278.792 364.598 280.279C365.19 281.767 366.021 282.9 367.089 283.68C368.158 284.46 369.407 284.85 370.837 284.85C371.891 284.85 372.837 284.633 373.675 284.2C374.527 283.767 375.227 283.138 375.776 282.315C376.339 281.478 376.707 280.474 376.881 279.304H385.589C385.444 281.846 384.751 284.084 383.509 286.02C382.282 287.94 380.585 289.442 378.419 290.525C376.252 291.608 373.689 292.15 370.729 292.15ZM409.195 258.227V265.159H389.157V258.227H409.195ZM393.706 250.256H402.934V281.276C402.934 282.128 403.064 282.792 403.324 283.268C403.584 283.731 403.945 284.056 404.407 284.243C404.884 284.431 405.433 284.525 406.054 284.525C406.487 284.525 406.92 284.489 407.354 284.417C407.787 284.33 408.119 284.265 408.35 284.222L409.801 291.088C409.339 291.233 408.689 291.399 407.852 291.587C407.014 291.789 405.996 291.912 404.797 291.955C402.573 292.042 400.624 291.746 398.949 291.067C397.288 290.388 395.995 289.334 395.071 287.904C394.147 286.474 393.692 284.669 393.706 282.489V250.256Z" fill="white"/>
<path d="M47.304 325.973V323.864H62.0312V325.973H55.8565V343.5H53.4787V325.973H47.304ZM67.7242 343.845C66.7909 343.845 65.944 343.669 65.1833 343.318C64.4227 342.96 63.8186 342.445 63.3712 341.774C62.9237 341.097 62.7 340.278 62.7 339.32C62.7 338.476 62.8662 337.792 63.1986 337.268C63.531 336.737 63.9752 336.322 64.5313 336.021C65.0874 335.721 65.7011 335.497 66.3722 335.35C67.0498 335.197 67.7306 335.075 68.4145 334.986C69.3094 334.871 70.0349 334.784 70.591 334.727C71.1535 334.663 71.5626 334.558 71.8183 334.411C72.0803 334.263 72.2114 334.008 72.2114 333.643V333.567C72.2114 332.621 71.9525 331.886 71.4347 331.362C70.9234 330.837 70.1468 330.575 69.1048 330.575C68.0246 330.575 67.1776 330.812 66.564 331.285C65.9504 331.758 65.5189 332.263 65.2696 332.8L63.1219 332.033C63.5054 331.138 64.0168 330.441 64.656 329.942C65.3016 329.437 66.0047 329.086 66.7654 328.888C67.5324 328.683 68.2867 328.581 69.0281 328.581C69.5012 328.581 70.0445 328.638 70.6581 328.754C71.2781 328.862 71.8758 329.089 72.4511 329.434C73.0328 329.779 73.5154 330.3 73.8989 330.997C74.2824 331.694 74.4742 332.627 74.4742 333.797V343.5H72.2114V341.506H72.0963C71.9429 341.825 71.6872 342.167 71.3293 342.532C70.9713 342.896 70.4951 343.206 69.9007 343.462C69.3062 343.717 68.5807 343.845 67.7242 343.845ZM68.0693 341.812C68.9642 341.812 69.7185 341.637 70.3321 341.285C70.9521 340.934 71.4188 340.48 71.732 339.924C72.0516 339.368 72.2114 338.783 72.2114 338.169V336.098C72.1155 336.213 71.9046 336.319 71.5786 336.414C71.259 336.504 70.8882 336.584 70.4664 336.654C70.0509 336.718 69.645 336.776 69.2487 336.827C68.8588 336.871 68.5423 336.91 68.2995 336.942C67.7114 337.018 67.1617 337.143 66.6503 337.316C66.1453 337.482 65.7362 337.734 65.423 338.073C65.1162 338.406 64.9628 338.859 64.9628 339.435C64.9628 340.221 65.2536 340.815 65.8353 341.218C66.4234 341.614 67.1681 341.812 68.0693 341.812ZM89.036 332.071L87.0034 332.646C86.8755 332.308 86.687 331.978 86.4377 331.659C86.1948 331.333 85.8624 331.064 85.4405 330.853C85.0186 330.642 84.4785 330.537 83.8201 330.537C82.9189 330.537 82.1678 330.745 81.5669 331.16C80.9725 331.569 80.6752 332.09 80.6752 332.723C80.6752 333.286 80.8798 333.73 81.2889 334.056C81.698 334.382 82.3372 334.653 83.2065 334.871L85.3926 335.408C86.7093 335.727 87.6905 336.216 88.3361 336.875C88.9817 337.527 89.3045 338.367 89.3045 339.396C89.3045 340.24 89.0616 340.994 88.5758 341.659C88.0964 342.324 87.4252 342.848 86.5623 343.232C85.6994 343.615 84.6958 343.807 83.5517 343.807C82.0495 343.807 80.8063 343.481 79.8219 342.829C78.8375 342.177 78.2143 341.224 77.9522 339.972L80.1 339.435C80.3045 340.227 80.6912 340.822 81.2601 341.218C81.8354 341.614 82.5865 341.812 83.5133 341.812C84.568 341.812 85.4054 341.589 86.0254 341.141C86.6518 340.687 86.965 340.144 86.965 339.511C86.965 339 86.786 338.572 86.4281 338.227C86.0701 337.875 85.5204 337.613 84.7789 337.44L82.3244 336.865C80.9757 336.545 79.9849 336.05 79.3521 335.379C78.7257 334.701 78.4125 333.854 78.4125 332.838C78.4125 332.007 78.6458 331.272 79.1124 330.633C79.5854 329.994 80.2278 329.492 81.0396 329.127C81.8578 328.763 82.7846 328.581 83.8201 328.581C85.2775 328.581 86.4217 328.901 87.2527 329.54C88.09 330.179 88.6845 331.023 89.036 332.071ZM94.82 338.131L94.7817 335.331H95.2419L101.685 328.773H104.485L97.6198 335.714H97.428L94.82 338.131ZM92.7107 343.5V323.864H94.9735V343.5H92.7107ZM102.069 343.5L96.3158 336.213L97.9266 334.641L104.945 343.5H102.069ZM117.829 332.071L115.796 332.646C115.669 332.308 115.48 331.978 115.231 331.659C114.988 331.333 114.655 331.064 114.233 330.853C113.812 330.642 113.271 330.537 112.613 330.537C111.712 330.537 110.961 330.745 110.36 331.16C109.765 331.569 109.468 332.09 109.468 332.723C109.468 333.286 109.673 333.73 110.082 334.056C110.491 334.382 111.13 334.653 111.999 334.871L114.186 335.408C115.502 335.727 116.483 336.216 117.129 336.875C117.775 337.527 118.097 338.367 118.097 339.396C118.097 340.24 117.855 340.994 117.369 341.659C116.889 342.324 116.218 342.848 115.355 343.232C114.492 343.615 113.489 343.807 112.345 343.807C110.843 343.807 109.599 343.481 108.615 342.829C107.631 342.177 107.007 341.224 106.745 339.972L108.893 339.435C109.097 340.227 109.484 340.822 110.053 341.218C110.628 341.614 111.379 341.812 112.306 341.812C113.361 341.812 114.198 341.589 114.818 341.141C115.445 340.687 115.758 340.144 115.758 339.511C115.758 339 115.579 338.572 115.221 338.227C114.863 337.875 114.313 337.613 113.572 337.44L111.117 336.865C109.769 336.545 108.778 336.05 108.145 335.379C107.519 334.701 107.205 333.854 107.205 332.838C107.205 332.007 107.439 331.272 107.905 330.633C108.378 329.994 109.021 329.492 109.833 329.127C110.651 328.763 111.578 328.581 112.613 328.581C114.07 328.581 115.215 328.901 116.046 329.54C116.883 330.179 117.477 331.023 117.829 332.071ZM133.431 343.845C132.498 343.845 131.651 343.669 130.89 343.318C130.13 342.96 129.526 342.445 129.078 341.774C128.631 341.097 128.407 340.278 128.407 339.32C128.407 338.476 128.573 337.792 128.906 337.268C129.238 336.737 129.682 336.322 130.238 336.021C130.794 335.721 131.408 335.497 132.079 335.35C132.757 335.197 133.438 335.075 134.122 334.986C135.016 334.871 135.742 334.784 136.298 334.727C136.861 334.663 137.27 334.558 137.525 334.411C137.787 334.263 137.918 334.008 137.918 333.643V333.567C137.918 332.621 137.66 331.886 137.142 331.362C136.63 330.837 135.854 330.575 134.812 330.575C133.732 330.575 132.885 330.812 132.271 331.285C131.657 331.758 131.226 332.263 130.977 332.8L128.829 332.033C129.212 331.138 129.724 330.441 130.363 329.942C131.009 329.437 131.712 329.086 132.472 328.888C133.239 328.683 133.994 328.581 134.735 328.581C135.208 328.581 135.752 328.638 136.365 328.754C136.985 328.862 137.583 329.089 138.158 329.434C138.74 329.779 139.222 330.3 139.606 330.997C139.989 331.694 140.181 332.627 140.181 333.797V343.5H137.918V341.506H137.803C137.65 341.825 137.394 342.167 137.036 342.532C136.678 342.896 136.202 343.206 135.608 343.462C135.013 343.717 134.288 343.845 133.431 343.845ZM133.776 341.812C134.671 341.812 135.426 341.637 136.039 341.285C136.659 340.934 137.126 340.48 137.439 339.924C137.759 339.368 137.918 338.783 137.918 338.169V336.098C137.823 336.213 137.612 336.319 137.286 336.414C136.966 336.504 136.595 336.584 136.173 336.654C135.758 336.718 135.352 336.776 134.956 336.827C134.566 336.871 134.249 336.91 134.006 336.942C133.418 337.018 132.869 337.143 132.357 337.316C131.852 337.482 131.443 337.734 131.13 338.073C130.823 338.406 130.67 338.859 130.67 339.435C130.67 340.221 130.961 340.815 131.542 341.218C132.13 341.614 132.875 341.812 133.776 341.812ZM144.311 343.5V328.773H146.497V330.997H146.651C146.919 330.268 147.405 329.677 148.108 329.223C148.811 328.77 149.604 328.543 150.486 328.543C150.652 328.543 150.86 328.546 151.109 328.552C151.358 328.559 151.547 328.568 151.675 328.581V330.882C151.598 330.863 151.422 330.834 151.148 330.796C150.879 330.751 150.595 330.729 150.294 330.729C149.578 330.729 148.939 330.879 148.377 331.179C147.82 331.473 147.379 331.882 147.053 332.407C146.734 332.924 146.574 333.516 146.574 334.18V343.5H144.311ZM160.084 343.807C158.665 343.807 157.441 343.494 156.411 342.867C155.389 342.234 154.599 341.352 154.043 340.221C153.493 339.083 153.219 337.76 153.219 336.251C153.219 334.743 153.493 333.413 154.043 332.263C154.599 331.106 155.373 330.205 156.363 329.559C157.361 328.907 158.524 328.581 159.854 328.581C160.621 328.581 161.378 328.709 162.126 328.964C162.874 329.22 163.555 329.636 164.168 330.211C164.782 330.78 165.271 331.534 165.635 332.474C165.999 333.413 166.182 334.57 166.182 335.945V336.903H154.829V334.947H163.881C163.881 334.116 163.714 333.375 163.382 332.723C163.056 332.071 162.589 331.556 161.982 331.179C161.381 330.802 160.672 330.614 159.854 330.614C158.952 330.614 158.172 330.837 157.514 331.285C156.862 331.726 156.36 332.301 156.009 333.011C155.657 333.72 155.481 334.481 155.481 335.293V336.597C155.481 337.709 155.673 338.652 156.057 339.425C156.447 340.192 156.987 340.777 157.677 341.18C158.367 341.576 159.17 341.774 160.084 341.774C160.678 341.774 161.215 341.691 161.694 341.525C162.18 341.352 162.599 341.097 162.95 340.758C163.302 340.413 163.574 339.984 163.765 339.473L165.952 340.087C165.721 340.828 165.335 341.48 164.791 342.043C164.248 342.599 163.577 343.033 162.778 343.347C161.979 343.653 161.081 343.807 160.084 343.807ZM177.524 343.5V323.864H179.787V331.112H179.979C180.145 330.857 180.375 330.531 180.669 330.134C180.97 329.732 181.398 329.374 181.954 329.06C182.517 328.741 183.277 328.581 184.236 328.581C185.476 328.581 186.569 328.891 187.515 329.511C188.461 330.131 189.199 331.01 189.73 332.148C190.26 333.286 190.526 334.628 190.526 336.175C190.526 337.734 190.26 339.086 189.73 340.23C189.199 341.368 188.464 342.25 187.525 342.877C186.585 343.497 185.502 343.807 184.274 343.807C183.328 343.807 182.571 343.65 182.002 343.337C181.433 343.017 180.995 342.656 180.688 342.254C180.382 341.844 180.145 341.506 179.979 341.237H179.71V343.5H177.524ZM179.749 336.136C179.749 337.249 179.912 338.23 180.238 339.08C180.564 339.924 181.04 340.585 181.666 341.065C182.293 341.538 183.06 341.774 183.968 341.774C184.914 341.774 185.703 341.525 186.336 341.026C186.975 340.521 187.454 339.844 187.774 338.994C188.1 338.137 188.263 337.185 188.263 336.136C188.263 335.101 188.103 334.168 187.784 333.337C187.47 332.499 186.994 331.838 186.355 331.352C185.722 330.86 184.926 330.614 183.968 330.614C183.047 330.614 182.274 330.847 181.647 331.314C181.021 331.774 180.548 332.419 180.228 333.25C179.909 334.075 179.749 335.037 179.749 336.136ZM200.162 343.807C198.743 343.807 197.519 343.494 196.49 342.867C195.467 342.234 194.677 341.352 194.121 340.221C193.572 339.083 193.297 337.76 193.297 336.251C193.297 334.743 193.572 333.413 194.121 332.263C194.677 331.106 195.451 330.205 196.442 329.559C197.439 328.907 198.602 328.581 199.932 328.581C200.699 328.581 201.456 328.709 202.204 328.964C202.952 329.22 203.633 329.636 204.246 330.211C204.86 330.78 205.349 331.534 205.713 332.474C206.078 333.413 206.26 334.57 206.26 335.945V336.903H194.907V334.947H203.959C203.959 334.116 203.792 333.375 203.46 332.723C203.134 332.071 202.667 331.556 202.06 331.179C201.459 330.802 200.75 330.614 199.932 330.614C199.03 330.614 198.251 330.837 197.592 331.285C196.94 331.726 196.438 332.301 196.087 333.011C195.735 333.72 195.559 334.481 195.559 335.293V336.597C195.559 337.709 195.751 338.652 196.135 339.425C196.525 340.192 197.065 340.777 197.755 341.18C198.445 341.576 199.248 341.774 200.162 341.774C200.756 341.774 201.293 341.691 201.773 341.525C202.258 341.352 202.677 341.097 203.029 340.758C203.38 340.413 203.652 339.984 203.844 339.473L206.03 340.087C205.8 340.828 205.413 341.48 204.869 342.043C204.326 342.599 203.655 343.033 202.856 343.347C202.057 343.653 201.159 343.807 200.162 343.807ZM216.107 328.773V330.69H208.475V328.773H216.107ZM210.699 325.244H212.962V339.281C212.962 339.92 213.055 340.4 213.24 340.719C213.432 341.033 213.675 341.244 213.969 341.352C214.269 341.455 214.585 341.506 214.918 341.506C215.167 341.506 215.372 341.493 215.531 341.467C215.691 341.435 215.819 341.41 215.915 341.391L216.375 343.423C216.222 343.481 216.008 343.538 215.733 343.596C215.458 343.66 215.11 343.692 214.688 343.692C214.048 343.692 213.422 343.554 212.808 343.279C212.201 343.005 211.696 342.586 211.294 342.023C210.897 341.461 210.699 340.751 210.699 339.895V325.244ZM225.915 328.773V330.69H218.283V328.773H225.915ZM220.508 325.244H222.77V339.281C222.77 339.92 222.863 340.4 223.048 340.719C223.24 341.033 223.483 341.244 223.777 341.352C224.078 341.455 224.394 341.506 224.726 341.506C224.976 341.506 225.18 341.493 225.34 341.467C225.5 341.435 225.628 341.41 225.724 341.391L226.184 343.423C226.03 343.481 225.816 343.538 225.541 343.596C225.267 343.66 224.918 343.692 224.496 343.692C223.857 343.692 223.231 343.554 222.617 343.279C222.01 343.005 221.505 342.586 221.102 342.023C220.706 341.461 220.508 340.751 220.508 339.895V325.244ZM235.336 343.807C233.917 343.807 232.692 343.494 231.663 342.867C230.641 342.234 229.851 341.352 229.295 340.221C228.745 339.083 228.471 337.76 228.471 336.251C228.471 334.743 228.745 333.413 229.295 332.263C229.851 331.106 230.625 330.205 231.615 329.559C232.613 328.907 233.776 328.581 235.105 328.581C235.873 328.581 236.63 328.709 237.378 328.964C238.126 329.22 238.806 329.636 239.42 330.211C240.034 330.78 240.523 331.534 240.887 332.474C241.251 333.413 241.434 334.57 241.434 335.945V336.903H230.081V334.947H239.132C239.132 334.116 238.966 333.375 238.634 332.723C238.308 332.071 237.841 331.556 237.234 331.179C236.633 330.802 235.924 330.614 235.105 330.614C234.204 330.614 233.424 330.837 232.766 331.285C232.114 331.726 231.612 332.301 231.261 333.011C230.909 333.72 230.733 334.481 230.733 335.293V336.597C230.733 337.709 230.925 338.652 231.309 339.425C231.699 340.192 232.239 340.777 232.929 341.18C233.619 341.576 234.422 341.774 235.336 341.774C235.93 341.774 236.467 341.691 236.946 341.525C237.432 341.352 237.851 341.097 238.202 340.758C238.554 340.413 238.826 339.984 239.017 339.473L241.203 340.087C240.973 340.828 240.587 341.48 240.043 342.043C239.5 342.599 238.829 343.033 238.03 343.347C237.231 343.653 236.333 343.807 235.336 343.807ZM244.876 343.5V328.773H247.062V330.997H247.215C247.484 330.268 247.969 329.677 248.673 329.223C249.376 328.77 250.168 328.543 251.05 328.543C251.217 328.543 251.424 328.546 251.674 328.552C251.923 328.559 252.112 328.568 252.239 328.581V330.882C252.163 330.863 251.987 330.834 251.712 330.796C251.444 330.751 251.159 330.729 250.859 330.729C250.143 330.729 249.504 330.879 248.941 331.179C248.385 331.473 247.944 331.882 247.618 332.407C247.298 332.924 247.138 333.516 247.138 334.18V343.5H244.876ZM265.852 343.5L261.365 328.773H263.743L266.926 340.048H267.079L270.224 328.773H272.64L275.747 340.01H275.9L279.084 328.773H281.461L276.974 343.5H274.75L271.528 332.186H271.298L268.076 343.5H265.852ZM284.453 343.5V328.773H286.716V343.5H284.453ZM285.603 326.318C285.162 326.318 284.782 326.168 284.462 325.868C284.149 325.567 283.993 325.206 283.993 324.784C283.993 324.362 284.149 324.001 284.462 323.701C284.782 323.4 285.162 323.25 285.603 323.25C286.044 323.25 286.422 323.4 286.735 323.701C287.054 324.001 287.214 324.362 287.214 324.784C287.214 325.206 287.054 325.567 286.735 325.868C286.422 326.168 286.044 326.318 285.603 326.318ZM297.265 328.773V330.69H289.633V328.773H297.265ZM291.857 325.244H294.12V339.281C294.12 339.92 294.213 340.4 294.398 340.719C294.59 341.033 294.833 341.244 295.127 341.352C295.427 341.455 295.744 341.506 296.076 341.506C296.325 341.506 296.53 341.493 296.69 341.467C296.849 341.435 296.977 341.41 297.073 341.391L297.533 343.423C297.38 343.481 297.166 343.538 296.891 343.596C296.616 343.66 296.268 343.692 295.846 343.692C295.207 343.692 294.58 343.554 293.967 343.279C293.359 343.005 292.854 342.586 292.452 342.023C292.055 341.461 291.857 340.751 291.857 339.895V325.244ZM303.248 334.641V343.5H300.985V323.864H303.248V331.074H303.44C303.785 330.313 304.303 329.709 304.993 329.262C305.69 328.808 306.616 328.581 307.773 328.581C308.777 328.581 309.656 328.782 310.41 329.185C311.164 329.581 311.749 330.192 312.165 331.016C312.587 331.835 312.798 332.876 312.798 334.142V343.5H310.535V334.295C310.535 333.126 310.231 332.221 309.624 331.582C309.023 330.936 308.189 330.614 307.121 330.614C306.38 330.614 305.715 330.77 305.127 331.083C304.545 331.397 304.085 331.854 303.746 332.455C303.414 333.055 303.248 333.784 303.248 334.641ZM328.865 343.845C327.932 343.845 327.085 343.669 326.324 343.318C325.563 342.96 324.959 342.445 324.512 341.774C324.064 341.097 323.841 340.278 323.841 339.32C323.841 338.476 324.007 337.792 324.339 337.268C324.672 336.737 325.116 336.322 325.672 336.021C326.228 335.721 326.842 335.497 327.513 335.35C328.19 335.197 328.871 335.075 329.555 334.986C330.45 334.871 331.176 334.784 331.732 334.727C332.294 334.663 332.703 334.558 332.959 334.411C333.221 334.263 333.352 334.008 333.352 333.643V333.567C333.352 332.621 333.093 331.886 332.575 331.362C332.064 330.837 331.287 330.575 330.245 330.575C329.165 330.575 328.318 330.812 327.705 331.285C327.091 331.758 326.66 332.263 326.41 332.8L324.263 332.033C324.646 331.138 325.157 330.441 325.797 329.942C326.442 329.437 327.145 329.086 327.906 328.888C328.673 328.683 329.427 328.581 330.169 328.581C330.642 328.581 331.185 328.638 331.799 328.754C332.419 328.862 333.016 329.089 333.592 329.434C334.173 329.779 334.656 330.3 335.04 330.997C335.423 331.694 335.615 332.627 335.615 333.797V343.5H333.352V341.506H333.237C333.084 341.825 332.828 342.167 332.47 342.532C332.112 342.896 331.636 343.206 331.041 343.462C330.447 343.717 329.721 343.845 328.865 343.845ZM329.21 341.812C330.105 341.812 330.859 341.637 331.473 341.285C332.093 340.934 332.559 340.48 332.873 339.924C333.192 339.368 333.352 338.783 333.352 338.169V336.098C333.256 336.213 333.045 336.319 332.719 336.414C332.4 336.504 332.029 336.584 331.607 336.654C331.191 336.718 330.786 336.776 330.389 336.827C329.999 336.871 329.683 336.91 329.44 336.942C328.852 337.018 328.302 337.143 327.791 337.316C327.286 337.482 326.877 337.734 326.564 338.073C326.257 338.406 326.103 338.859 326.103 339.435C326.103 340.221 326.394 340.815 326.976 341.218C327.564 341.614 328.309 341.812 329.21 341.812ZM353.743 328.773V330.69H346.111V328.773H353.743ZM348.336 325.244H350.599V339.281C350.599 339.92 350.691 340.4 350.877 340.719C351.068 341.033 351.311 341.244 351.605 341.352C351.906 341.455 352.222 341.506 352.555 341.506C352.804 341.506 353.008 341.493 353.168 341.467C353.328 341.435 353.456 341.41 353.552 341.391L354.012 343.423C353.858 343.481 353.644 343.538 353.369 343.596C353.095 343.66 352.746 343.692 352.324 343.692C351.685 343.692 351.059 343.554 350.445 343.279C349.838 343.005 349.333 342.586 348.93 342.023C348.534 341.461 348.336 340.751 348.336 339.895V325.244ZM363.164 343.807C361.745 343.807 360.521 343.494 359.491 342.867C358.469 342.234 357.679 341.352 357.123 340.221C356.574 339.083 356.299 337.76 356.299 336.251C356.299 334.743 356.574 333.413 357.123 332.263C357.679 331.106 358.453 330.205 359.444 329.559C360.441 328.907 361.604 328.581 362.934 328.581C363.701 328.581 364.458 328.709 365.206 328.964C365.954 329.22 366.635 329.636 367.248 330.211C367.862 330.78 368.351 331.534 368.715 332.474C369.08 333.413 369.262 334.57 369.262 335.945V336.903H357.909V334.947H366.961C366.961 334.116 366.794 333.375 366.462 332.723C366.136 332.071 365.669 331.556 365.062 331.179C364.461 330.802 363.752 330.614 362.934 330.614C362.032 330.614 361.252 330.837 360.594 331.285C359.942 331.726 359.44 332.301 359.089 333.011C358.737 333.72 358.561 334.481 358.561 335.293V336.597C358.561 337.709 358.753 338.652 359.137 339.425C359.527 340.192 360.067 340.777 360.757 341.18C361.447 341.576 362.25 341.774 363.164 341.774C363.758 341.774 364.295 341.691 364.775 341.525C365.26 341.352 365.679 341.097 366.031 340.758C366.382 340.413 366.654 339.984 366.846 339.473L369.032 340.087C368.801 340.828 368.415 341.48 367.871 342.043C367.328 342.599 366.657 343.033 365.858 343.347C365.059 343.653 364.161 343.807 363.164 343.807ZM377.038 343.845C376.104 343.845 375.257 343.669 374.497 343.318C373.736 342.96 373.132 342.445 372.685 341.774C372.237 341.097 372.013 340.278 372.013 339.32C372.013 338.476 372.18 337.792 372.512 337.268C372.844 336.737 373.289 336.322 373.845 336.021C374.401 335.721 375.015 335.497 375.686 335.35C376.363 335.197 377.044 335.075 377.728 334.986C378.623 334.871 379.348 334.784 379.904 334.727C380.467 334.663 380.876 334.558 381.132 334.411C381.394 334.263 381.525 334.008 381.525 333.643V333.567C381.525 332.621 381.266 331.886 380.748 331.362C380.237 330.837 379.46 330.575 378.418 330.575C377.338 330.575 376.491 330.812 375.877 331.285C375.264 331.758 374.832 332.263 374.583 332.8L372.435 332.033C372.819 331.138 373.33 330.441 373.969 329.942C374.615 329.437 375.318 329.086 376.079 328.888C376.846 328.683 377.6 328.581 378.342 328.581C378.815 328.581 379.358 328.638 379.972 328.754C380.592 328.862 381.189 329.089 381.765 329.434C382.346 329.779 382.829 330.3 383.212 330.997C383.596 331.694 383.788 332.627 383.788 333.797V343.5H381.525V341.506H381.41C381.256 341.825 381.001 342.167 380.643 342.532C380.285 342.896 379.809 343.206 379.214 343.462C378.62 343.717 377.894 343.845 377.038 343.845ZM377.383 341.812C378.278 341.812 379.032 341.637 379.646 341.285C380.266 340.934 380.732 340.48 381.045 339.924C381.365 339.368 381.525 338.783 381.525 338.169V336.098C381.429 336.213 381.218 336.319 380.892 336.414C380.572 336.504 380.202 336.584 379.78 336.654C379.364 336.718 378.958 336.776 378.562 336.827C378.172 336.871 377.856 336.91 377.613 336.942C377.025 337.018 376.475 337.143 375.964 337.316C375.459 337.482 375.05 337.734 374.737 338.073C374.43 338.406 374.276 338.859 374.276 339.435C374.276 340.221 374.567 340.815 375.149 341.218C375.737 341.614 376.482 341.812 377.383 341.812ZM387.918 343.5V328.773H390.104V331.074H390.296C390.602 330.288 391.098 329.677 391.782 329.243C392.466 328.801 393.287 328.581 394.246 328.581C395.217 328.581 396.026 328.801 396.672 329.243C397.324 329.677 397.832 330.288 398.196 331.074H398.35C398.727 330.313 399.292 329.709 400.047 329.262C400.801 328.808 401.705 328.581 402.76 328.581C404.077 328.581 405.154 328.993 405.991 329.818C406.829 330.636 407.247 331.911 407.247 333.643V343.5H404.984V333.643C404.984 332.557 404.687 331.78 404.093 331.314C403.498 330.847 402.798 330.614 401.993 330.614C400.957 330.614 400.155 330.927 399.586 331.553C399.017 332.173 398.733 332.96 398.733 333.912V343.5H396.432V333.413C396.432 332.576 396.16 331.902 395.617 331.39C395.074 330.873 394.374 330.614 393.517 330.614C392.929 330.614 392.379 330.77 391.868 331.083C391.363 331.397 390.954 331.831 390.641 332.387C390.334 332.937 390.18 333.573 390.18 334.295V343.5H387.918ZM414.376 323.864L414.184 337.977H411.96L411.768 323.864H414.376ZM413.072 343.653C412.599 343.653 412.193 343.484 411.854 343.145C411.516 342.806 411.346 342.401 411.346 341.928C411.346 341.455 411.516 341.049 411.854 340.71C412.193 340.371 412.599 340.202 413.072 340.202C413.545 340.202 413.951 340.371 414.29 340.71C414.628 341.049 414.798 341.455 414.798 341.928C414.798 342.241 414.718 342.528 414.558 342.79C414.405 343.053 414.197 343.263 413.935 343.423C413.679 343.577 413.392 343.653 413.072 343.653Z" fill="white"/>
<path d="M136 361.5H46" stroke="#29ABE2" stroke-width="3" stroke-linecap="round"/>
<path d="M85.9968 154H73.7868V167.896H85.9968V154Z" fill="white"/>
<path d="M73.7868 179.197H85.9968V198.795C86.0526 203.51 84.6958 208.136 82.099 212.084C79.5349 215.919 74.5852 220.483 65.4277 220.483C55.4531 220.483 49.6392 215.817 46.5022 213.26L54.2039 203.862C57.2658 206.335 60.2149 208.37 65.4746 208.37C69.457 208.37 71.0443 206.764 71.9741 205.365C73.2382 203.42 73.892 201.146 73.8526 198.832L73.7868 179.197Z" fill="white"/>
<path d="M67.5597 170.425H55.3497V182.557H67.5597V170.425Z" fill="#29ABE2"/>
<path d="M92.3929 214.79C92.3929 217.375 91.0686 218.766 89.2183 218.766C87.368 218.766 86.1564 217.114 86.1564 214.921C86.1564 212.728 87.4056 210.992 89.3216 210.992C91.2377 210.992 92.3929 212.7 92.3929 214.79ZM87.5747 214.893C87.5747 216.451 88.204 217.599 89.2841 217.599C90.3642 217.599 90.9747 216.386 90.9747 214.8C90.9747 213.409 90.4111 212.103 89.2841 212.103C88.157 212.103 87.5747 213.362 87.5747 214.893Z" fill="white"/>
<path d="M94.8161 211.104V218.644H93.4636V211.104H94.8161Z" fill="white"/>
<path d="M96.2814 218.644V211.104H97.7841L99.3996 214.212C99.8155 215.024 100.185 215.859 100.508 216.713V216.713C100.423 215.779 100.386 214.706 100.386 213.512V211.104H101.626V218.644H100.226L98.5919 215.471C98.1592 214.638 97.7735 213.781 97.4366 212.905V212.905C97.4366 213.838 97.5024 214.893 97.5024 216.19V218.635L96.2814 218.644Z" fill="white"/>
</svg>
