<svg width="198" height="53" viewBox="0 0 198 53" fill="none" xmlns="http://www.w3.org/2000/svg">
<rect x="0.5" y="0.5" width="196.772" height="52" rx="9.5" fill="#2A3647"/>
<path d="M29.1019 18.7273V34H26.3129L19.6683 24.3874H19.5565V34H16.3274V18.7273H19.1612L25.7536 28.3324H25.8878V18.7273H29.1019ZM36.9303 34.2237C35.752 34.2237 34.7378 33.9851 33.8877 33.5078C33.0425 33.0256 32.3912 32.3445 31.9339 31.4645C31.4765 30.5795 31.2478 29.533 31.2478 28.3249C31.2478 27.1467 31.4765 26.1126 31.9339 25.2227C32.3912 24.3327 33.0351 23.6392 33.8653 23.142C34.7006 22.6449 35.68 22.3963 36.8035 22.3963C37.5592 22.3963 38.2627 22.5181 38.914 22.7617C39.5702 23.0004 40.142 23.3608 40.6292 23.843C41.1214 24.3253 41.5042 24.9318 41.7776 25.6626C42.051 26.3885 42.1878 27.2386 42.1878 28.2131V29.0856H32.5155V27.1168H39.1974C39.1974 26.6594 39.0979 26.2543 38.8991 25.9013C38.7002 25.5483 38.4243 25.2724 38.0713 25.0735C37.7233 24.8697 37.3181 24.7678 36.8557 24.7678C36.3735 24.7678 35.9459 24.8796 35.5731 25.1033C35.2052 25.3221 34.9168 25.6179 34.708 25.9908C34.4992 26.3587 34.3923 26.7688 34.3873 27.2212V29.093C34.3873 29.6598 34.4917 30.1495 34.7006 30.5621C34.9143 30.9748 35.2151 31.293 35.6029 31.5167C35.9907 31.7404 36.4506 31.8523 36.9825 31.8523C37.3355 31.8523 37.6586 31.8026 37.952 31.7031C38.2453 31.6037 38.4964 31.4545 38.7052 31.2557C38.914 31.0568 39.0731 30.8132 39.1824 30.5249L42.1207 30.7188C41.9715 31.4247 41.6657 32.0412 41.2034 32.5682C40.746 33.0902 40.1544 33.4979 39.4285 33.7912C38.7077 34.0795 37.8749 34.2237 36.9303 34.2237ZM46.4385 34L43.3213 22.5455H46.5354L48.3103 30.2415H48.4147L50.2641 22.5455H53.4186L55.2979 30.1967H55.3948L57.1398 22.5455H60.3465L57.2368 34H53.8735L51.9047 26.7962H51.7631L49.7943 34H46.4385ZM72.077 34.2237C70.9037 34.2237 69.8944 33.9751 69.0493 33.478C68.2091 32.9759 67.5628 32.2798 67.1104 31.3899C66.6629 30.5 66.4392 29.4759 66.4392 28.3175C66.4392 27.1442 66.6654 26.1151 67.1178 25.2301C67.5752 24.3402 68.224 23.6467 69.0642 23.1495C69.9044 22.6474 70.9037 22.3963 72.0621 22.3963C73.0613 22.3963 73.9363 22.5778 74.6871 22.9407C75.4378 23.3036 76.0319 23.8132 76.4694 24.4695C76.9069 25.1257 77.148 25.8963 77.1927 26.7812H74.1949C74.1104 26.2095 73.8866 25.7496 73.5237 25.4016C73.1657 25.0487 72.6959 24.8722 72.1143 24.8722C71.6221 24.8722 71.192 25.0064 70.8241 25.2749C70.4612 25.5384 70.1778 25.9237 69.974 26.4308C69.7702 26.9379 69.6682 27.5518 69.6682 28.2727C69.6682 29.0036 69.7677 29.625 69.9665 30.1371C70.1704 30.6491 70.4562 31.0394 70.8241 31.3079C71.192 31.5763 71.6221 31.7106 72.1143 31.7106C72.4772 31.7106 72.8028 31.636 73.0912 31.4869C73.3845 31.3377 73.6256 31.1214 73.8145 30.8381C74.0084 30.5497 74.1352 30.2042 74.1949 29.8015H77.1927C77.143 30.6765 76.9044 31.4471 76.4768 32.1133C76.0542 32.7745 75.4701 33.2915 74.7243 33.6644C73.9786 34.0373 73.0961 34.2237 72.077 34.2237ZM84.4022 34.2237C83.2438 34.2237 82.242 33.9776 81.3968 33.4854C80.5566 32.9883 79.9078 32.2972 79.4505 31.4123C78.9931 30.5224 78.7644 29.4908 78.7644 28.3175C78.7644 27.1342 78.9931 26.1001 79.4505 25.2152C79.9078 24.3253 80.5566 23.6342 81.3968 23.142C82.242 22.6449 83.2438 22.3963 84.4022 22.3963C85.5605 22.3963 86.5598 22.6449 87.4 23.142C88.2452 23.6342 88.8965 24.3253 89.3539 25.2152C89.8113 26.1001 90.04 27.1342 90.04 28.3175C90.04 29.4908 89.8113 30.5224 89.3539 31.4123C88.8965 32.2972 88.2452 32.9883 87.4 33.4854C86.5598 33.9776 85.5605 34.2237 84.4022 34.2237ZM84.4171 31.7628C84.9441 31.7628 85.3841 31.6136 85.737 31.3153C86.09 31.0121 86.356 30.5994 86.535 30.0774C86.7189 29.5554 86.8109 28.9613 86.8109 28.2951C86.8109 27.6289 86.7189 27.0348 86.535 26.5128C86.356 25.9908 86.09 25.5781 85.737 25.2749C85.3841 24.9716 84.9441 24.82 84.4171 24.82C83.8851 24.82 83.4377 24.9716 83.0748 25.2749C82.7168 25.5781 82.4458 25.9908 82.2619 26.5128C82.0829 27.0348 81.9934 27.6289 81.9934 28.2951C81.9934 28.9613 82.0829 29.5554 82.2619 30.0774C82.4458 30.5994 82.7168 31.0121 83.0748 31.3153C83.4377 31.6136 83.8851 31.7628 84.4171 31.7628ZM95.2825 27.3778V34H92.1056V22.5455H95.1333V24.5664H95.2676C95.5211 23.9002 95.9462 23.3732 96.5428 22.9854C97.1394 22.5927 97.8627 22.3963 98.7129 22.3963C99.5083 22.3963 100.202 22.5703 100.794 22.9183C101.385 23.2663 101.845 23.7635 102.173 24.4098C102.501 25.0511 102.665 25.8168 102.665 26.7067V34H99.4885V27.2734C99.4934 26.5724 99.3145 26.0256 98.9515 25.6328C98.5886 25.2351 98.089 25.0362 97.4526 25.0362C97.025 25.0362 96.6472 25.1282 96.3191 25.3121C95.9959 25.4961 95.7424 25.7646 95.5584 26.1175C95.3794 26.4656 95.2875 26.8857 95.2825 27.3778ZM111.262 22.5455V24.9318H104.364V22.5455H111.262ZM105.93 19.8011H109.107V30.4801C109.107 30.7734 109.151 31.0021 109.241 31.1662C109.33 31.3253 109.455 31.4371 109.614 31.5018C109.778 31.5664 109.967 31.5987 110.18 31.5987C110.33 31.5987 110.479 31.5863 110.628 31.5614C110.777 31.5316 110.891 31.5092 110.971 31.4943L111.471 33.8583C111.312 33.908 111.088 33.9652 110.799 34.0298C110.511 34.0994 110.161 34.1417 109.748 34.1566C108.982 34.1864 108.311 34.0845 107.734 33.8509C107.163 33.6172 106.718 33.2543 106.4 32.7621C106.081 32.2699 105.925 31.6484 105.93 30.8977V19.8011ZM116.598 34.2163C115.867 34.2163 115.215 34.0895 114.644 33.8359C114.072 33.5774 113.62 33.1971 113.286 32.695C112.958 32.1879 112.794 31.5565 112.794 30.8008C112.794 30.1644 112.911 29.63 113.145 29.1974C113.378 28.7649 113.697 28.4169 114.099 28.1534C114.502 27.8899 114.959 27.6911 115.472 27.5568C115.989 27.4226 116.53 27.3281 117.097 27.2734C117.763 27.2038 118.3 27.1392 118.708 27.0795C119.116 27.0149 119.411 26.9205 119.595 26.7962C119.779 26.6719 119.871 26.4879 119.871 26.2443V26.1996C119.871 25.7273 119.722 25.3619 119.424 25.1033C119.131 24.8448 118.713 24.7156 118.171 24.7156C117.599 24.7156 117.144 24.8423 116.806 25.0959C116.468 25.3445 116.245 25.6577 116.135 26.0355L113.197 25.7969C113.346 25.1009 113.639 24.4993 114.077 23.9922C114.514 23.4801 115.079 23.0874 115.77 22.8139C116.466 22.5355 117.271 22.3963 118.186 22.3963C118.822 22.3963 119.431 22.4709 120.013 22.62C120.6 22.7692 121.119 23.0004 121.572 23.3136C122.029 23.6268 122.389 24.0295 122.653 24.5217C122.916 25.0089 123.048 25.593 123.048 26.2741V34H120.035V32.4116H119.946C119.762 32.7695 119.516 33.0852 119.208 33.3587C118.899 33.6271 118.529 33.8384 118.097 33.9925C117.664 34.1417 117.164 34.2163 116.598 34.2163ZM117.507 32.0238C117.975 32.0238 118.387 31.9318 118.745 31.7479C119.103 31.5589 119.384 31.3054 119.588 30.9872C119.792 30.669 119.894 30.3086 119.894 29.9059V28.6903C119.794 28.755 119.658 28.8146 119.484 28.8693C119.315 28.919 119.123 28.9663 118.909 29.011C118.696 29.0508 118.482 29.0881 118.268 29.1229C118.054 29.1527 117.86 29.18 117.686 29.2049C117.313 29.2596 116.988 29.3466 116.709 29.4659C116.431 29.5852 116.215 29.7468 116.061 29.9506C115.907 30.1495 115.829 30.3981 115.829 30.6964C115.829 31.1289 115.986 31.4595 116.299 31.6882C116.617 31.9119 117.02 32.0238 117.507 32.0238ZM130.688 34.2237C129.515 34.2237 128.506 33.9751 127.661 33.478C126.82 32.9759 126.174 32.2798 125.722 31.3899C125.274 30.5 125.051 29.4759 125.051 28.3175C125.051 27.1442 125.277 26.1151 125.729 25.2301C126.187 24.3402 126.835 23.6467 127.676 23.1495C128.516 22.6474 129.515 22.3963 130.673 22.3963C131.673 22.3963 132.548 22.5778 133.298 22.9407C134.049 23.3036 134.643 23.8132 135.081 24.4695C135.518 25.1257 135.759 25.8963 135.804 26.7812H132.806C132.722 26.2095 132.498 25.7496 132.135 25.4016C131.777 25.0487 131.307 24.8722 130.726 24.8722C130.233 24.8722 129.803 25.0064 129.435 25.2749C129.073 25.5384 128.789 25.9237 128.585 26.4308C128.381 26.9379 128.28 27.5518 128.28 28.2727C128.28 29.0036 128.379 29.625 128.578 30.1371C128.782 30.6491 129.068 31.0394 129.435 31.3079C129.803 31.5763 130.233 31.7106 130.726 31.7106C131.089 31.7106 131.414 31.636 131.703 31.4869C131.996 31.3377 132.237 31.1214 132.426 30.8381C132.62 30.5497 132.747 30.2042 132.806 29.8015H135.804C135.754 30.6765 135.516 31.4471 135.088 32.1133C134.666 32.7745 134.081 33.2915 133.336 33.6644C132.59 34.0373 131.707 34.2237 130.688 34.2237ZM143.931 22.5455V24.9318H137.033V22.5455H143.931ZM138.599 19.8011H141.776V30.4801C141.776 30.7734 141.82 31.0021 141.91 31.1662C141.999 31.3253 142.124 31.4371 142.283 31.5018C142.447 31.5664 142.636 31.5987 142.849 31.5987C142.999 31.5987 143.148 31.5863 143.297 31.5614C143.446 31.5316 143.56 31.5092 143.64 31.4943L144.14 33.8583C143.98 33.908 143.757 33.9652 143.468 34.0298C143.18 34.0994 142.83 34.1417 142.417 34.1566C141.651 34.1864 140.98 34.0845 140.403 33.8509C139.832 33.6172 139.387 33.2543 139.069 32.7621C138.75 32.2699 138.594 31.6484 138.599 30.8977V19.8011Z" fill="white"/>
<path d="M165.728 27.6363C164.38 27.6363 163.062 27.2364 161.94 26.4872C160.819 25.7381 159.945 24.6732 159.429 23.4274C158.913 22.1815 158.778 20.8106 159.041 19.488C159.304 18.1654 159.954 16.9505 160.907 15.997C161.861 15.0435 163.076 14.3941 164.398 14.131C165.721 13.8679 167.092 14.003 168.338 14.519C169.583 15.0351 170.648 15.909 171.397 17.0302C172.147 18.1514 172.546 19.4697 172.546 20.8182C172.542 22.6252 171.823 24.3571 170.545 25.6349C169.267 26.9127 167.535 27.6323 165.728 27.6363ZM165.728 15.5151C164.679 15.5151 163.654 15.8262 162.782 16.4089C161.91 16.9916 161.23 17.8198 160.829 18.7888C160.428 19.7578 160.323 20.824 160.527 21.8527C160.732 22.8814 161.237 23.8263 161.979 24.568C162.72 25.3096 163.665 25.8147 164.694 26.0193C165.722 26.2239 166.789 26.1189 167.758 25.7175C168.727 25.3161 169.555 24.6364 170.138 23.7644C170.72 22.8923 171.031 21.867 171.031 20.8182C171.031 19.4117 170.473 18.0629 169.478 17.0684C168.484 16.0739 167.135 15.5151 165.728 15.5151Z" fill="white"/>
<path d="M171.03 39H155L155.136 38.1212C155.47 35.4734 156.745 33.0339 158.729 31.2482C160.712 29.4624 163.271 28.4493 165.939 28.394C167.319 28.3819 168.688 28.6392 169.97 29.1515C170.065 29.1877 170.152 29.2427 170.226 29.3132C170.299 29.3838 170.358 29.4685 170.398 29.5623C170.438 29.656 170.459 29.7569 170.459 29.8589C170.459 29.9608 170.438 30.0618 170.399 30.1556C170.359 30.2495 170.301 30.3344 170.227 30.4052C170.154 30.4759 170.067 30.5312 169.972 30.5676C169.876 30.604 169.775 30.6208 169.673 30.617C169.571 30.6132 169.471 30.5889 169.379 30.5455C168.289 30.0897 167.12 29.8529 165.939 29.8485C163.792 29.902 161.726 30.6794 160.076 32.0545C158.426 33.4296 157.288 35.3218 156.848 37.4242H171.076C171.277 37.4242 171.469 37.504 171.611 37.6461C171.753 37.7882 171.833 37.9809 171.833 38.1818C171.833 38.3827 171.753 38.5754 171.611 38.7175C171.469 38.8596 171.277 38.9394 171.076 38.9394L171.03 39Z" fill="white"/>
<path d="M176.712 26.8783C175.541 26.8791 174.397 27.2186 173.415 27.8558C172.434 28.493 171.658 29.4007 171.181 30.4692C170.828 31.2443 170.647 32.0869 170.651 32.9389C170.651 34.1375 171.006 35.3093 171.672 36.306C172.338 37.3026 173.285 38.0794 174.392 38.5381C175.5 38.9968 176.718 39.1169 177.894 38.883C179.07 38.6492 180.149 38.0719 180.997 37.2244C181.845 36.3768 182.422 35.2969 182.656 34.1212C182.89 32.9456 182.769 31.727 182.311 30.6196C181.852 29.5122 181.075 28.5656 180.079 27.8997C179.082 27.2337 177.91 26.8783 176.712 26.8783ZM179.742 33.7571H177.53V35.9692C177.53 36.1862 177.444 36.3943 177.29 36.5477C177.137 36.7011 176.929 36.7873 176.712 36.7873C176.495 36.7873 176.286 36.7011 176.133 36.5477C175.98 36.3943 175.893 36.1862 175.893 35.9692V33.6965H173.681C173.574 33.6965 173.467 33.6753 173.368 33.6342C173.269 33.5931 173.179 33.5328 173.103 33.4568C173.027 33.3808 172.966 33.2906 172.925 33.1914C172.884 33.0921 172.863 32.9857 172.863 32.8783C172.862 32.7322 172.901 32.5887 172.976 32.4632C173.051 32.3378 173.159 32.235 173.287 32.1662C173.404 32.0905 173.542 32.0534 173.681 32.0601H175.893V29.9086C175.893 29.6916 175.98 29.4835 176.133 29.33C176.286 29.1766 176.495 29.0904 176.712 29.0904C176.929 29.0904 177.137 29.1766 177.29 29.33C177.444 29.4835 177.53 29.6916 177.53 29.9086V32.1813H179.742C179.959 32.1813 180.167 32.2675 180.32 32.4209C180.474 32.5744 180.56 32.7825 180.56 32.9995C180.56 33.2165 180.474 33.4246 180.32 33.578C180.167 33.7315 179.959 33.8177 179.742 33.8177V33.7571Z" fill="white"/>
<rect x="0.5" y="0.5" width="196.772" height="52" rx="9.5" stroke="#2A3647"/>
</svg>