<svg width="620" height="58" viewBox="0 0 620 58" fill="none" xmlns="http://www.w3.org/2000/svg">
<path d="M0.486195 45V0.636362H17.989C21.3394 0.636362 24.1988 1.23568 26.5672 2.4343C28.95 3.61849 30.7624 5.3009 32.0043 7.48153C33.2607 9.64773 33.8889 12.1966 33.8889 15.1282C33.8889 18.0742 33.2535 20.6087 31.9826 22.7315C30.7118 24.84 28.8705 26.4574 26.4589 27.5838C24.0616 28.7102 21.1589 29.2734 17.7508 29.2734H6.03165V21.7351H16.2344C18.0251 21.7351 19.5126 21.4896 20.6968 20.9986C21.881 20.5076 22.7619 19.7711 23.3395 18.7891C23.9316 17.8071 24.2277 16.5868 24.2277 15.1282C24.2277 13.6552 23.9316 12.4132 23.3395 11.4023C22.7619 10.3915 21.8737 9.62606 20.6751 9.10618C19.4909 8.57185 17.9963 8.30469 16.1911 8.30469H9.86581V45H0.486195ZM24.4443 24.8111L35.4702 45H25.1158L14.3282 24.8111H24.4443ZM54.9714 45.6499C51.5488 45.6499 48.6028 44.9567 46.1333 43.5703C43.6783 42.1695 41.7865 40.1911 40.4579 37.6349C39.1293 35.0644 38.465 32.0245 38.465 28.5153C38.465 25.0927 39.1293 22.0889 40.4579 19.5039C41.7865 16.9189 43.6566 14.9044 46.0683 13.4602C48.4945 12.0161 51.3394 11.294 54.6031 11.294C56.7982 11.294 58.8416 11.6478 60.7334 12.3555C62.6397 13.0486 64.3004 14.0956 65.7157 15.4964C67.1454 16.8973 68.2574 18.6591 69.0516 20.782C69.8459 22.8904 70.243 25.3598 70.243 28.1903V30.7248H42.1475V25.006H61.5566C61.5566 23.6774 61.2678 22.5005 60.6901 21.4751C60.1125 20.4498 59.311 19.6483 58.2856 19.0707C57.2748 18.4786 56.0978 18.1825 54.7548 18.1825C53.3539 18.1825 52.112 18.5075 51.0289 19.1573C49.9602 19.7927 49.1226 20.652 48.5161 21.7351C47.9096 22.8037 47.5991 23.9951 47.5847 25.3093V30.7464C47.5847 32.3928 47.8879 33.8152 48.4945 35.0138C49.1154 36.2125 49.9891 37.1367 51.1155 37.7866C52.242 38.4364 53.5778 38.7614 55.123 38.7614C56.1483 38.7614 57.087 38.617 57.9391 38.3281C58.7911 38.0393 59.5204 37.6061 60.1269 37.0284C60.7334 36.4508 61.1956 35.7431 61.5133 34.9055L70.0481 35.4688C69.6148 37.5194 68.7267 39.3101 67.3837 40.8409C66.0551 42.3572 64.3365 43.5414 62.2281 44.3935C60.1341 45.2311 57.7152 45.6499 54.9714 45.6499ZM103.949 21.2152L95.5008 21.7351C95.3564 21.013 95.0459 20.3632 94.5694 19.7855C94.0928 19.1934 93.4646 18.7241 92.6848 18.3775C91.9194 18.0165 91.0024 17.8359 89.9337 17.8359C88.504 17.8359 87.2982 18.1392 86.3162 18.7457C85.3342 19.3378 84.8432 20.1321 84.8432 21.1285C84.8432 21.9228 85.1609 22.5943 85.7963 23.1431C86.4317 23.6919 87.522 24.1323 89.0673 24.4645L95.0893 25.6776C98.3241 26.3419 100.736 27.4105 102.324 28.8835C103.913 30.3565 104.707 32.2917 104.707 34.6889C104.707 36.8696 104.065 38.783 102.779 40.4293C101.508 42.0756 99.761 43.3609 97.5371 44.2852C95.3275 45.195 92.7787 45.6499 89.8904 45.6499C85.4858 45.6499 81.9766 44.7328 79.3627 42.8988C76.7633 41.0503 75.2397 38.5375 74.792 35.3604L83.8684 34.8839C84.1428 36.2269 84.8071 37.2522 85.8613 37.9599C86.9155 38.6531 88.2658 38.9996 89.9121 38.9996C91.5295 38.9996 92.8292 38.6892 93.8112 38.0682C94.8077 37.4328 95.3131 36.6168 95.3275 35.6204C95.3131 34.7828 94.9593 34.0968 94.2661 33.5625C93.5729 33.0137 92.5043 32.5949 91.0601 32.3061L85.2981 31.158C82.0488 30.5082 79.6299 29.3817 78.0413 27.7788C76.4672 26.1758 75.6802 24.1323 75.6802 21.6484C75.6802 19.5111 76.2578 17.6699 77.4131 16.1246C78.5829 14.5794 80.222 13.388 82.3304 12.5504C84.4533 11.7128 86.9372 11.294 89.7821 11.294C93.9845 11.294 97.2916 12.1822 99.7033 13.9584C102.129 15.7347 103.545 18.1536 103.949 21.2152ZM125.681 45.6499C122.259 45.6499 119.313 44.9567 116.843 43.5703C114.388 42.1695 112.496 40.1911 111.168 37.6349C109.839 35.0644 109.175 32.0245 109.175 28.5153C109.175 25.0927 109.839 22.0889 111.168 19.5039C112.496 16.9189 114.367 14.9044 116.778 13.4602C119.204 12.0161 122.049 11.294 125.313 11.294C127.508 11.294 129.552 11.6478 131.443 12.3555C133.35 13.0486 135.01 14.0956 136.426 15.4964C137.855 16.8973 138.967 18.6591 139.762 20.782C140.556 22.8904 140.953 25.3598 140.953 28.1903V30.7248H112.857V25.006H132.267C132.267 23.6774 131.978 22.5005 131.4 21.4751C130.822 20.4498 130.021 19.6483 128.996 19.0707C127.985 18.4786 126.808 18.1825 125.465 18.1825C124.064 18.1825 122.822 18.5075 121.739 19.1573C120.67 19.7927 119.833 20.652 119.226 21.7351C118.62 22.8037 118.309 23.9951 118.295 25.3093V30.7464C118.295 32.3928 118.598 33.8152 119.204 35.0138C119.825 36.2125 120.699 37.1367 121.826 37.7866C122.952 38.4364 124.288 38.7614 125.833 38.7614C126.858 38.7614 127.797 38.617 128.649 38.3281C129.501 38.0393 130.23 37.6061 130.837 37.0284C131.443 36.4508 131.906 35.7431 132.223 34.9055L140.758 35.4688C140.325 37.5194 139.437 39.3101 138.094 40.8409C136.765 42.3572 135.047 43.5414 132.938 44.3935C130.844 45.2311 128.425 45.6499 125.681 45.6499ZM164.673 11.7273V18.6591H144.636V11.7273H164.673ZM149.185 3.75568H158.413V34.7756C158.413 35.6276 158.542 36.2919 158.802 36.7685C159.062 37.2306 159.423 37.5555 159.886 37.7433C160.362 37.931 160.911 38.0249 161.532 38.0249C161.965 38.0249 162.398 37.9888 162.832 37.9165C163.265 37.8299 163.597 37.7649 163.828 37.7216L165.279 44.5884C164.817 44.7328 164.167 44.8989 163.33 45.0866C162.492 45.2888 161.474 45.4116 160.275 45.4549C158.051 45.5415 156.102 45.2455 154.427 44.5668C152.766 43.888 151.473 42.8338 150.549 41.4041C149.625 39.9744 149.17 38.1693 149.185 35.9886V3.75568ZM190.499 57.4773C189.33 57.4773 188.232 57.3834 187.207 57.1957C186.196 57.0224 185.358 56.7985 184.694 56.5241L186.773 49.6357C187.856 49.9678 188.831 50.1483 189.698 50.1772C190.579 50.2061 191.337 50.0039 191.972 49.5707C192.622 49.1374 193.149 48.4009 193.554 47.3612L194.095 45.9531L182.159 11.7273H191.864L198.752 36.1619H199.099L206.053 11.7273H215.822L202.89 48.5959C202.269 50.3866 201.424 51.9463 200.355 53.2749C199.301 54.6179 197.965 55.6505 196.348 56.3725C194.731 57.109 192.781 57.4773 190.499 57.4773ZM234.505 45.6499C231.141 45.6499 228.231 44.935 225.776 43.5053C223.335 42.0612 221.451 40.0539 220.122 37.4833C218.793 34.8983 218.129 31.9018 218.129 28.4936C218.129 25.0566 218.793 22.0528 220.122 19.4822C221.451 16.8973 223.335 14.8899 225.776 13.4602C228.231 12.0161 231.141 11.294 234.505 11.294C237.87 11.294 240.773 12.0161 243.214 13.4602C245.669 14.8899 247.56 16.8973 248.889 19.4822C250.218 22.0528 250.882 25.0566 250.882 28.4936C250.882 31.9018 250.218 34.8983 248.889 37.4833C247.56 40.0539 245.669 42.0612 243.214 43.5053C240.773 44.935 237.87 45.6499 234.505 45.6499ZM234.549 38.5014C236.08 38.5014 237.358 38.0682 238.383 37.2017C239.408 36.3208 240.181 35.1222 240.701 33.6058C241.235 32.0895 241.502 30.3638 241.502 28.4286C241.502 26.4935 241.235 24.7678 240.701 23.2514C240.181 21.7351 239.408 20.5365 238.383 19.6555C237.358 18.7746 236.08 18.3342 234.549 18.3342C233.004 18.3342 231.704 18.7746 230.65 19.6555C229.61 20.5365 228.823 21.7351 228.288 23.2514C227.769 24.7678 227.509 26.4935 227.509 28.4286C227.509 30.3638 227.769 32.0895 228.288 33.6058C228.823 35.1222 229.61 36.3208 230.65 37.2017C231.704 38.0682 233.004 38.5014 234.549 38.5014ZM278.219 30.8331V11.7273H287.447V45H278.587V38.9563H278.241C277.49 40.9059 276.241 42.4728 274.493 43.657C272.76 44.8411 270.645 45.4332 268.146 45.4332C265.922 45.4332 263.966 44.9278 262.276 43.9169C260.586 42.906 259.265 41.4691 258.312 39.6062C257.373 37.7433 256.897 35.5121 256.882 32.9126V11.7273H266.11V31.2663C266.125 33.2304 266.652 34.7828 267.692 35.9236C268.731 37.0645 270.125 37.6349 271.872 37.6349C272.984 37.6349 274.024 37.3822 274.992 36.8768C275.959 36.3569 276.739 35.5915 277.331 34.5806C277.938 33.5697 278.234 32.3205 278.219 30.8331ZM294.829 45V11.7273H303.775V17.5327H304.121C304.728 15.4676 305.746 13.9079 307.176 12.8537C308.606 11.785 310.252 11.2507 312.115 11.2507C312.577 11.2507 313.075 11.2796 313.609 11.3374C314.144 11.3951 314.613 11.4745 315.017 11.5756V19.7638C314.584 19.6339 313.985 19.5183 313.22 19.4173C312.454 19.3162 311.754 19.2656 311.118 19.2656C309.761 19.2656 308.548 19.5617 307.479 20.1538C306.425 20.7314 305.587 21.5401 304.966 22.5799C304.36 23.6197 304.057 24.8183 304.057 26.1758V45H294.829ZM333.907 57.4773V11.7273H343.005V17.316H343.416C343.821 16.4207 344.405 15.5109 345.171 14.5866C345.951 13.648 346.962 12.8681 348.204 12.2472C349.46 11.6117 351.02 11.294 352.883 11.294C355.309 11.294 357.547 11.9295 359.598 13.2003C361.648 14.4567 363.287 16.3557 364.515 18.8974C365.742 21.4246 366.356 24.5945 366.356 28.407C366.356 32.1184 365.757 35.2521 364.558 37.8082C363.374 40.3499 361.757 42.2778 359.706 43.592C357.67 44.8917 355.388 45.5415 352.861 45.5415C351.07 45.5415 349.547 45.2455 348.29 44.6534C347.048 44.0613 346.03 43.3176 345.236 42.4222C344.442 41.5124 343.835 40.5954 343.416 39.6712H343.135V57.4773H333.907ZM342.94 28.3636C342.94 30.3421 343.214 32.0678 343.763 33.5408C344.312 35.0138 345.106 36.1619 346.146 36.9851C347.185 37.7938 348.449 38.1982 349.936 38.1982C351.438 38.1982 352.709 37.7866 353.749 36.9634C354.789 36.1258 355.576 34.9705 356.11 33.4975C356.659 32.0101 356.933 30.2988 356.933 28.3636C356.933 26.4429 356.666 24.7533 356.132 23.2947C355.597 21.8362 354.81 20.6953 353.771 19.8722C352.731 19.049 351.453 18.6374 349.936 18.6374C348.435 18.6374 347.164 19.0346 346.124 19.8288C345.099 20.6231 344.312 21.7495 343.763 23.2081C343.214 24.6667 342.94 26.3852 342.94 28.3636ZM381.996 45.6282C379.873 45.6282 377.981 45.2599 376.321 44.5234C374.66 43.7725 373.346 42.6677 372.378 41.2092C371.425 39.7362 370.949 37.9021 370.949 35.707C370.949 33.8585 371.288 32.3061 371.967 31.0497C372.645 29.7933 373.57 28.7824 374.739 28.017C375.909 27.2517 377.238 26.674 378.725 26.2841C380.227 25.8942 381.801 25.6198 383.447 25.4609C385.383 25.2588 386.942 25.071 388.126 24.8977C389.311 24.71 390.17 24.4356 390.704 24.0746C391.239 23.7135 391.506 23.1792 391.506 22.4716V22.3416C391.506 20.9697 391.072 19.9083 390.206 19.1573C389.354 18.4064 388.141 18.0309 386.567 18.0309C384.906 18.0309 383.585 18.3991 382.603 19.1357C381.621 19.8577 380.971 20.7675 380.653 21.8651L372.118 21.1719C372.552 19.1501 373.404 17.4027 374.674 15.9297C375.945 14.4422 377.584 13.3014 379.592 12.5071C381.613 11.6984 383.953 11.294 386.61 11.294C388.459 11.294 390.228 11.5107 391.917 11.9439C393.621 12.3771 395.13 13.0486 396.445 13.9584C397.773 14.8683 398.82 16.038 399.586 17.4677C400.351 18.8829 400.734 20.5798 400.734 22.5582V45H391.982V40.386H391.722C391.188 41.4258 390.473 42.3428 389.578 43.1371C388.682 43.9169 387.607 44.5307 386.35 44.9783C385.094 45.4116 383.642 45.6282 381.996 45.6282ZM384.639 39.2596C385.996 39.2596 387.195 38.9924 388.235 38.4581C389.275 37.9093 390.09 37.1728 390.683 36.2486C391.275 35.3243 391.571 34.2773 391.571 33.1076V29.5767C391.282 29.7644 390.885 29.9377 390.379 30.0966C389.888 30.241 389.332 30.3782 388.711 30.5082C388.09 30.6237 387.469 30.732 386.848 30.8331C386.227 30.9197 385.664 30.9992 385.159 31.0714C384.076 31.2302 383.13 31.483 382.321 31.8295C381.512 32.1761 380.884 32.6455 380.436 33.2376C379.989 33.8152 379.765 34.5373 379.765 35.4038C379.765 36.6602 380.22 37.6205 381.13 38.2848C382.054 38.9347 383.224 39.2596 384.639 39.2596ZM435.577 21.2152L427.129 21.7351C426.984 21.013 426.674 20.3632 426.197 19.7855C425.721 19.1934 425.093 18.7241 424.313 18.3775C423.547 18.0165 422.63 17.8359 421.562 17.8359C420.132 17.8359 418.926 18.1392 417.944 18.7457C416.962 19.3378 416.471 20.1321 416.471 21.1285C416.471 21.9228 416.789 22.5943 417.424 23.1431C418.06 23.6919 419.15 24.1323 420.695 24.4645L426.717 25.6776C429.952 26.3419 432.364 27.4105 433.952 28.8835C435.541 30.3565 436.335 32.2917 436.335 34.6889C436.335 36.8696 435.692 38.783 434.407 40.4293C433.136 42.0756 431.389 43.3609 429.165 44.2852C426.955 45.195 424.407 45.6499 421.518 45.6499C417.114 45.6499 413.605 44.7328 410.991 42.8988C408.391 41.0503 406.868 38.5375 406.42 35.3604L415.496 34.8839C415.771 36.2269 416.435 37.2522 417.489 37.9599C418.543 38.6531 419.894 38.9996 421.54 38.9996C423.157 38.9996 424.457 38.6892 425.439 38.0682C426.436 37.4328 426.941 36.6168 426.955 35.6204C426.941 34.7828 426.587 34.0968 425.894 33.5625C425.201 33.0137 424.132 32.5949 422.688 32.3061L416.926 31.158C413.677 30.5082 411.258 29.3817 409.669 27.7788C408.095 26.1758 407.308 24.1323 407.308 21.6484C407.308 19.5111 407.886 17.6699 409.041 16.1246C410.211 14.5794 411.85 13.388 413.958 12.5504C416.081 11.7128 418.565 11.294 421.41 11.294C425.612 11.294 428.919 12.1822 431.331 13.9584C433.757 15.7347 435.173 18.1536 435.577 21.2152ZM469.83 21.2152L461.382 21.7351C461.237 21.013 460.927 20.3632 460.45 19.7855C459.974 19.1934 459.345 18.7241 458.566 18.3775C457.8 18.0165 456.883 17.8359 455.815 17.8359C454.385 17.8359 453.179 18.1392 452.197 18.7457C451.215 19.3378 450.724 20.1321 450.724 21.1285C450.724 21.9228 451.042 22.5943 451.677 23.1431C452.313 23.6919 453.403 24.1323 454.948 24.4645L460.97 25.6776C464.205 26.3419 466.617 27.4105 468.205 28.8835C469.794 30.3565 470.588 32.2917 470.588 34.6889C470.588 36.8696 469.945 38.783 468.66 40.4293C467.389 42.0756 465.642 43.3609 463.418 44.2852C461.208 45.195 458.66 45.6499 455.771 45.6499C451.367 45.6499 447.857 44.7328 445.244 42.8988C442.644 41.0503 441.121 38.5375 440.673 35.3604L449.749 34.8839C450.024 36.2269 450.688 37.2522 451.742 37.9599C452.796 38.6531 454.147 38.9996 455.793 38.9996C457.41 38.9996 458.71 38.6892 459.692 38.0682C460.689 37.4328 461.194 36.6168 461.208 35.6204C461.194 34.7828 460.84 34.0968 460.147 33.5625C459.454 33.0137 458.385 32.5949 456.941 32.3061L451.179 31.158C447.93 30.5082 445.511 29.3817 443.922 27.7788C442.348 26.1758 441.561 24.1323 441.561 21.6484C441.561 19.5111 442.139 17.6699 443.294 16.1246C444.464 14.5794 446.103 13.388 448.211 12.5504C450.334 11.7128 452.818 11.294 455.663 11.294C459.865 11.294 463.172 12.1822 465.584 13.9584C468.01 15.7347 469.426 18.1536 469.83 21.2152ZM482.962 45L473.908 11.7273H483.244L488.4 34.0824H488.703L494.075 11.7273H503.238L508.697 33.9524H508.978L514.047 11.7273H523.362L514.329 45H504.559L498.841 24.0746H498.429L492.71 45H482.962ZM542.484 45.6499C539.119 45.6499 536.209 44.935 533.754 43.5053C531.314 42.0612 529.429 40.0539 528.1 37.4833C526.772 34.8983 526.108 31.9018 526.108 28.4936C526.108 25.0566 526.772 22.0528 528.1 19.4822C529.429 16.8973 531.314 14.8899 533.754 13.4602C536.209 12.0161 539.119 11.294 542.484 11.294C545.849 11.294 548.751 12.0161 551.192 13.4602C553.647 14.8899 555.539 16.8973 556.867 19.4822C558.196 22.0528 558.86 25.0566 558.86 28.4936C558.86 31.9018 558.196 34.8983 556.867 37.4833C555.539 40.0539 553.647 42.0612 551.192 43.5053C548.751 44.935 545.849 45.6499 542.484 45.6499ZM542.527 38.5014C544.058 38.5014 545.336 38.0682 546.361 37.2017C547.387 36.3208 548.159 35.1222 548.679 33.6058C549.214 32.0895 549.481 30.3638 549.481 28.4286C549.481 26.4935 549.214 24.7678 548.679 23.2514C548.159 21.7351 547.387 20.5365 546.361 19.6555C545.336 18.7746 544.058 18.3342 542.527 18.3342C540.982 18.3342 539.682 18.7746 538.628 19.6555C537.588 20.5365 536.801 21.7351 536.267 23.2514C535.747 24.7678 535.487 26.4935 535.487 28.4286C535.487 30.3638 535.747 32.0895 536.267 33.6058C536.801 35.1222 537.588 36.3208 538.628 37.2017C539.682 38.0682 540.982 38.5014 542.527 38.5014ZM564.861 45V11.7273H573.807V17.5327H574.154C574.76 15.4676 575.778 13.9079 577.208 12.8537C578.638 11.785 580.284 11.2507 582.147 11.2507C582.609 11.2507 583.107 11.2796 583.642 11.3374C584.176 11.3951 584.645 11.4745 585.05 11.5756V19.7638C584.616 19.6339 584.017 19.5183 583.252 19.4173C582.486 19.3162 581.786 19.2656 581.151 19.2656C579.793 19.2656 578.58 19.5617 577.511 20.1538C576.457 20.7314 575.62 21.5401 574.999 22.5799C574.392 23.6197 574.089 24.8183 574.089 26.1758V45H564.861ZM600.533 45.5415C598.005 45.5415 595.716 44.8917 593.666 43.592C591.629 42.2778 590.012 40.3499 588.813 37.8082C587.629 35.2521 587.037 32.1184 587.037 28.407C587.037 24.5945 587.651 21.4246 588.878 18.8974C590.106 16.3557 591.738 14.4567 593.774 13.2003C595.825 11.9295 598.07 11.294 600.511 11.294C602.374 11.294 603.926 11.6117 605.168 12.2472C606.425 12.8681 607.435 13.648 608.201 14.5866C608.981 15.5109 609.573 16.4207 609.977 17.316H610.259V0.636362H619.465V45H610.367V39.6712H609.977C609.544 40.5954 608.93 41.5124 608.136 42.4222C607.356 43.3176 606.338 44.0613 605.082 44.6534C603.84 45.2455 602.323 45.5415 600.533 45.5415ZM603.457 38.1982C604.944 38.1982 606.201 37.7938 607.226 36.9851C608.266 36.1619 609.06 35.0138 609.609 33.5408C610.172 32.0678 610.454 30.3421 610.454 28.3636C610.454 26.3852 610.179 24.6667 609.631 23.2081C609.082 21.7495 608.288 20.6231 607.248 19.8288C606.208 19.0346 604.944 18.6374 603.457 18.6374C601.941 18.6374 600.663 19.049 599.623 19.8722C598.583 20.6953 597.796 21.8362 597.262 23.2947C596.727 24.7533 596.46 26.4429 596.46 28.3636C596.46 30.2988 596.727 32.0101 597.262 33.4975C597.81 34.9705 598.597 36.1258 599.623 36.9634C600.663 37.7866 601.941 38.1982 603.457 38.1982Z" fill="black"/>
</svg>
