<svg width="41" height="34" viewBox="0 0 41 34" fill="none" xmlns="http://www.w3.org/2000/svg">
<path d="M40.9078 2.25787C41.001 2.02503 41.0238 1.76996 40.9734 1.52427C40.923 1.27859 40.8016 1.0531 40.6243 0.875758C40.4469 0.698417 40.2215 0.577022 39.9758 0.526624C39.7301 0.476226 39.475 0.499042 39.2422 0.592241L1.96549 15.5034C1.6372 15.6348 1.35154 15.8543 1.13993 16.1376C0.928322 16.4209 0.798974 16.757 0.766125 17.1091C0.733275 17.4612 0.798196 17.8155 0.953742 18.1331C1.10929 18.4506 1.34943 18.7191 1.64774 18.909L14.4474 27.0526L18.3706 33.218C18.5559 33.4977 18.8435 33.6936 19.1717 33.7636C19.4999 33.8335 19.8424 33.772 20.1257 33.5921C20.4089 33.4122 20.6103 33.1283 20.6866 32.8016C20.7628 32.4748 20.7078 32.1311 20.5334 31.8445L17.0074 26.3044L36.2107 7.10099L31.3548 19.2421C31.2881 19.399 31.2534 19.5677 31.2527 19.7382C31.2519 19.9086 31.2853 20.0776 31.3507 20.235C31.4161 20.3925 31.5123 20.5353 31.6336 20.6551C31.7549 20.7749 31.8989 20.8693 32.0572 20.9327C32.2154 20.9962 32.3847 21.0274 32.5552 21.0245C32.7257 21.0217 32.8939 20.9849 33.0499 20.9162C33.206 20.8475 33.3468 20.7484 33.464 20.6246C33.5813 20.5008 33.6727 20.3549 33.7328 20.1954L40.9078 2.25787ZM34.399 5.2893L15.1957 24.4927L4.07699 17.4176L34.399 5.2893Z" fill="white"/>
</svg>
