<svg width="31" height="31" viewBox="0 0 31 31" fill="none" xmlns="http://www.w3.org/2000/svg">
<path d="M22.9984 6.96573L22.9984 24.9657C22.9979 25.496 22.787 26.0044 22.412 26.3794C22.0371 26.7543 21.5287 26.9652 20.9984 26.9657L16.9984 26.9657C16.4681 26.9652 15.9597 26.7543 15.5848 26.3794C15.2098 26.0044 14.9989 25.496 14.9984 24.9657L14.9984 6.96573C14.9989 6.43546 15.2098 5.92706 15.5848 5.5521C15.9597 5.17714 16.4681 4.96626 16.9984 4.96573L20.9984 4.96573C21.5287 4.96626 22.0371 5.17714 22.412 5.5521C22.787 5.92706 22.9979 6.43546 22.9984 6.96573ZM16.9984 24.9657L20.9984 24.9657L20.9984 6.96573L16.9984 6.96573L16.9984 24.9657ZM16.9984 6.96573L16.9984 24.9657C16.9979 25.496 16.787 26.0044 16.412 26.3793C16.0371 26.7543 15.5287 26.9652 14.9984 26.9657L10.9984 26.9657C10.4681 26.9652 9.95974 26.7543 9.58478 26.3793C9.20983 26.0044 8.99894 25.496 8.99841 24.9657L8.99841 6.96571C8.99894 6.43544 9.20983 5.92704 9.58478 5.55208C9.95974 5.17712 10.4681 4.96624 10.9984 4.96571L14.9984 4.96571C15.5287 4.96624 16.0371 5.17712 16.412 5.55208C16.787 5.92704 16.9979 6.43546 16.9984 6.96573ZM10.9984 24.9657L14.9984 24.9657L14.9984 6.96573L10.9984 6.96571L10.9984 24.9657ZM10.9984 6.96571L10.9984 24.9657C10.9979 25.496 10.787 26.0044 10.412 26.3793C10.0371 26.7543 9.52868 26.9652 8.99841 26.9657L4.99841 26.9657C4.46814 26.9652 3.95974 26.7543 3.58478 26.3793C3.20983 26.0044 2.99894 25.496 2.99841 24.9657L2.99841 6.96571C2.99894 6.43544 3.20983 5.92704 3.58478 5.55208C3.95974 5.17712 4.46814 4.96624 4.99841 4.96571L8.99841 4.96571C9.52868 4.96624 10.0371 5.17712 10.412 5.55208C10.787 5.92704 10.9979 6.43544 10.9984 6.96571ZM4.99841 24.9657L8.99841 24.9657L8.99841 6.96571L4.99841 6.96571L4.99841 24.9657Z" fill="#CDCDCD"/>
<path d="M28.9984 6.96595L28.9984 24.9659C28.9979 25.4962 28.787 26.0046 28.412 26.3796C28.0371 26.7545 27.5287 26.9654 26.9984 26.9659L22.9984 26.9659C22.4681 26.9654 21.9597 26.7545 21.5848 26.3796C21.2098 26.0046 20.9989 25.496 20.9984 24.9657L20.9984 6.96573C20.9989 6.43546 21.2098 5.92728 21.5848 5.55232C21.9597 5.17737 22.4681 4.96648 22.9984 4.96595L26.9984 4.96595C27.5287 4.96648 28.0371 5.17737 28.412 5.55232C28.787 5.92728 28.9979 6.43568 28.9984 6.96595ZM22.9984 24.9657L26.9984 24.9659L26.9984 6.96595L22.9984 6.96573L22.9984 24.9657Z" fill="#CDCDCD"/>
</svg>
