<svg width="220" height="61" viewBox="0 0 220 61" fill="none" xmlns="http://www.w3.org/2000/svg">
<path d="M26.0194 15.3952C25.8461 13.6478 25.1024 12.2904 23.7882 11.3228C22.4741 10.3552 20.6906 9.87145 18.4377 9.87145C16.9069 9.87145 15.6145 10.0881 14.5602 10.5213C13.506 10.9401 12.6973 11.525 12.1341 12.2759C11.5853 13.0269 11.3109 13.8789 11.3109 14.832C11.2821 15.6263 11.4481 16.3195 11.8092 16.9116C12.1846 17.5037 12.6973 18.0163 13.3472 18.4496C13.997 18.8684 14.748 19.2366 15.6 19.5543C16.452 19.8576 17.3618 20.1175 18.3294 20.3342L22.3152 21.2873C24.2503 21.7205 26.0266 22.2982 27.644 23.0202C29.2615 23.7423 30.6623 24.6304 31.8465 25.6847C33.0306 26.7389 33.9477 27.9808 34.5975 29.4105C35.2618 30.8402 35.6012 32.4793 35.6156 34.3278C35.6012 37.0427 34.908 39.3967 33.5361 41.3896C32.1786 43.368 30.2146 44.906 27.644 46.0036C25.0879 47.0866 22.0047 47.6282 18.3944 47.6282C14.813 47.6282 11.6936 47.0794 9.03644 45.9819C6.39369 44.8844 4.32858 43.2597 2.84113 41.108C1.36812 38.9418 0.595511 36.2629 0.523304 33.0714H9.59965C9.70074 34.5588 10.1268 35.8008 10.8777 36.7972C11.6431 37.7792 12.6612 38.523 13.932 39.0284C15.2173 39.5194 16.6687 39.7649 18.2861 39.7649C19.8746 39.7649 21.2538 39.5339 22.4235 39.0717C23.6077 38.6096 24.5247 37.967 25.1746 37.1438C25.8244 36.3207 26.1494 35.3748 26.1494 34.3061C26.1494 33.3097 25.8533 32.4721 25.2612 31.7933C24.6836 31.1146 23.8315 30.5369 22.7051 30.0604C21.5931 29.5838 20.2284 29.1506 18.611 28.7607L13.7804 27.5476C10.0401 26.6378 7.08687 25.2153 4.92068 23.2802C2.75448 21.3451 1.67861 18.7384 1.69305 15.4602C1.67861 12.7741 2.39345 10.4274 3.83758 8.4201C5.29615 6.41276 7.29627 4.84588 9.83794 3.71946C12.3796 2.59304 15.2679 2.02983 18.5027 2.02983C21.7953 2.02983 24.6691 2.59304 27.1242 3.71946C29.5936 4.84588 31.5143 6.41276 32.8862 8.4201C34.2582 10.4274 34.9658 12.7525 35.0091 15.3952H26.0194ZM41.7514 47V13.7273H50.9794V47H41.7514ZM46.387 9.43821C45.0151 9.43821 43.8381 8.98331 42.8561 8.07351C41.8886 7.14926 41.4048 6.04451 41.4048 4.75923C41.4048 3.4884 41.8886 2.39808 42.8561 1.48828C43.8381 0.564037 45.0151 0.101915 46.387 0.101915C47.759 0.101915 48.9287 0.564037 49.8963 1.48828C50.8783 2.39808 51.3693 3.4884 51.3693 4.75923C51.3693 6.04451 50.8783 7.14926 49.8963 8.07351C48.9287 8.98331 47.759 9.43821 46.387 9.43821ZM73.3616 60.1705C70.3722 60.1705 67.8089 59.7589 65.6716 58.9357C63.5487 58.127 61.8591 57.0223 60.6027 55.6214C59.3463 54.2206 58.5303 52.6465 58.1549 50.8991L66.6897 49.7511C66.9496 50.4154 67.3612 51.0363 67.9244 51.614C68.4876 52.1916 69.2313 52.6538 70.1556 53.0004C71.0943 53.3614 72.2351 53.5419 73.5782 53.5419C75.5855 53.5419 77.239 53.0509 78.5388 52.0689C79.8529 51.1013 80.51 49.4767 80.51 47.195V41.108H80.1201C79.7157 42.0322 79.1092 42.9059 78.3005 43.729C77.4918 44.5522 76.452 45.2237 75.1812 45.7436C73.9103 46.2635 72.394 46.5234 70.6321 46.5234C68.1338 46.5234 65.8593 45.9458 63.8086 44.7905C61.7724 43.6207 60.1478 41.8372 58.9347 39.44C57.7361 37.0283 57.1368 33.9812 57.1368 30.2986C57.1368 26.5295 57.7505 23.3813 58.978 20.854C60.2055 18.3268 61.8374 16.435 63.8736 15.1786C65.9243 13.9222 68.1699 13.294 70.6105 13.294C72.4734 13.294 74.0331 13.6117 75.2895 14.2472C76.5459 14.8681 77.5567 15.648 78.3221 16.5866C79.102 17.5109 79.7013 18.4207 80.1201 19.316H80.4667V13.7273H89.6297V47.3249C89.6297 50.1554 88.9365 52.5238 87.5501 54.43C86.1638 56.3363 84.2431 57.766 81.788 58.7191C79.3475 59.6867 76.5386 60.1705 73.3616 60.1705ZM73.5565 39.5916C75.044 39.5916 76.3004 39.2234 77.3257 38.4869C78.3655 37.7359 79.1597 36.6673 79.7085 35.2809C80.2717 33.8801 80.5533 32.2049 80.5533 30.2553C80.5533 28.3058 80.2789 26.6161 79.7302 25.1864C79.1814 23.7423 78.3871 22.6231 77.3473 21.8288C76.3076 21.0346 75.044 20.6374 73.5565 20.6374C72.0402 20.6374 70.7621 21.049 69.7223 21.8722C68.6826 22.6809 67.8955 23.8073 67.3612 25.2514C66.8269 26.6955 66.5597 28.3635 66.5597 30.2553C66.5597 32.176 66.8269 33.8368 67.3612 35.2376C67.91 36.6239 68.697 37.6998 69.7223 38.4652C70.7621 39.2161 72.0402 39.5916 73.5565 39.5916ZM106.201 27.7642V47H96.9731V13.7273H105.768V19.5977H106.158C106.894 17.6625 108.129 16.1317 109.862 15.0053C111.595 13.8645 113.696 13.294 116.166 13.294C118.476 13.294 120.491 13.7995 122.209 14.8104C123.928 15.8213 125.264 17.2654 126.217 19.1428C127.17 21.0057 127.646 23.2296 127.646 25.8146V47H118.418V27.4609C118.433 25.4247 117.913 23.8362 116.859 22.6953C115.804 21.54 114.353 20.9624 112.505 20.9624C111.263 20.9624 110.165 21.2295 109.212 21.7638C108.273 22.2982 107.537 23.078 107.003 24.1033C106.483 25.1142 106.215 26.3345 106.201 27.7642ZM170.375 32.8331V13.7273H179.602V47H170.743V40.9563H170.396C169.645 42.9059 168.396 44.4728 166.649 45.657C164.916 46.8411 162.8 47.4332 160.302 47.4332C158.078 47.4332 156.121 46.9278 154.431 45.9169C152.742 44.906 151.42 43.4691 150.467 41.6062C149.529 39.7433 149.052 37.5121 149.038 34.9126V13.7273H158.265V33.2663C158.28 35.2304 158.807 36.7828 159.847 37.9236C160.887 39.0645 162.28 39.6349 164.028 39.6349C165.14 39.6349 166.179 39.3822 167.147 38.8768C168.114 38.3569 168.894 37.5915 169.486 36.5806C170.093 35.5697 170.389 34.3205 170.375 32.8331ZM186.984 59.4773V13.7273H196.082V19.316H196.493C196.898 18.4207 197.483 17.5109 198.248 16.5866C199.028 15.648 200.039 14.8681 201.281 14.2472C202.537 13.6117 204.097 13.294 205.96 13.294C208.386 13.294 210.624 13.9295 212.675 15.2003C214.726 16.4567 216.365 18.3557 217.592 20.8974C218.82 23.4246 219.433 26.5945 219.433 30.407C219.433 34.1184 218.834 37.2521 217.635 39.8082C216.451 42.3499 214.834 44.2778 212.783 45.592C210.747 46.8917 208.465 47.5415 205.938 47.5415C204.147 47.5415 202.624 47.2455 201.367 46.6534C200.125 46.0613 199.107 45.3176 198.313 44.4222C197.519 43.5124 196.912 42.5954 196.493 41.6712H196.212V59.4773H186.984ZM196.017 30.3636C196.017 32.3421 196.291 34.0678 196.84 35.5408C197.389 37.0138 198.183 38.1619 199.223 38.9851C200.263 39.7938 201.526 40.1982 203.014 40.1982C204.516 40.1982 205.786 39.7866 206.826 38.9634C207.866 38.1258 208.653 36.9705 209.187 35.4975C209.736 34.0101 210.01 32.2988 210.01 30.3636C210.01 28.4429 209.743 26.7533 209.209 25.2947C208.675 23.8362 207.888 22.6953 206.848 21.8722C205.808 21.049 204.53 20.6374 203.014 20.6374C201.512 20.6374 200.241 21.0346 199.201 21.8288C198.176 22.6231 197.389 23.7495 196.84 25.2081C196.291 26.6667 196.017 28.3852 196.017 30.3636Z" fill="black"/>
</svg>
