<svg width="146" height="51" viewBox="0 0 146 51" fill="none" xmlns="http://www.w3.org/2000/svg">
<rect x="0.5" width="145" height="51" rx="8" fill="#2A3647"/>
<path d="M43.6126 22.1197C43.5529 21.5181 43.2969 21.0508 42.8445 20.7177C42.392 20.3846 41.7781 20.218 41.0025 20.218C40.4755 20.218 40.0305 20.2926 39.6676 20.4418C39.3047 20.5859 39.0263 20.7873 38.8324 21.0458C38.6435 21.3043 38.549 21.5977 38.549 21.9258C38.5391 22.1992 38.5962 22.4379 38.7205 22.6417C38.8498 22.8455 39.0263 23.022 39.25 23.1712C39.4737 23.3153 39.7322 23.4421 40.0256 23.5515C40.3189 23.6559 40.6321 23.7454 40.9652 23.82L42.3374 24.1481C43.0036 24.2972 43.6151 24.4961 44.1719 24.7447C44.7287 24.9933 45.2109 25.299 45.6186 25.6619C46.0263 26.0249 46.342 26.4524 46.5657 26.9446C46.7944 27.4368 46.9112 28.0011 46.9162 28.6374C46.9112 29.5721 46.6726 30.3825 46.2003 31.0685C45.733 31.7496 45.0568 32.2791 44.1719 32.657C43.2919 33.0298 42.2305 33.2163 40.9876 33.2163C39.7546 33.2163 38.6808 33.0273 37.766 32.6495C36.8562 32.2717 36.1452 31.7124 35.6332 30.9716C35.1261 30.2259 34.8601 29.3036 34.8352 28.2049H37.9599C37.9947 28.717 38.1413 29.1445 38.3999 29.4876C38.6634 29.8256 39.0138 30.0817 39.4513 30.2557C39.8938 30.4247 40.3935 30.5092 40.9503 30.5092C41.4972 30.5092 41.9719 30.4297 42.3746 30.2706C42.7823 30.1115 43.098 29.8903 43.3217 29.6069C43.5455 29.3235 43.6573 28.9979 43.6573 28.63C43.6573 28.2869 43.5554 27.9986 43.3516 27.7649C43.1527 27.5312 42.8594 27.3324 42.4716 27.1683C42.0888 27.0043 41.619 26.8551 41.0621 26.7209L39.3991 26.3033C38.1115 25.9901 37.0948 25.5004 36.3491 24.8342C35.6033 24.168 35.233 23.2706 35.2379 22.142C35.233 21.2173 35.479 20.4094 35.9762 19.7184C36.4783 19.0273 37.1669 18.4879 38.0419 18.1001C38.9169 17.7124 39.9112 17.5185 41.0249 17.5185C42.1584 17.5185 43.1477 17.7124 43.9929 18.1001C44.843 18.4879 45.5043 19.0273 45.9766 19.7184C46.4489 20.4094 46.6925 21.2099 46.7074 22.1197H43.6126ZM49.0285 33V21.5455H52.2053V33H49.0285ZM50.6244 20.0689C50.1521 20.0689 49.7469 19.9123 49.4088 19.5991C49.0757 19.2809 48.9092 18.9006 48.9092 18.4581C48.9092 18.0206 49.0757 17.6452 49.4088 17.332C49.7469 17.0138 50.1521 16.8548 50.6244 16.8548C51.0967 16.8548 51.4994 17.0138 51.8325 17.332C52.1705 17.6452 52.3396 18.0206 52.3396 18.4581C52.3396 18.9006 52.1705 19.2809 51.8325 19.5991C51.4994 19.9123 51.0967 20.0689 50.6244 20.0689ZM59.9107 37.5341C58.8816 37.5341 57.9991 37.3924 57.2633 37.109C56.5325 36.8306 55.9508 36.4503 55.5183 35.968C55.0858 35.4858 54.8049 34.9439 54.6756 34.3423L57.6138 33.9471C57.7033 34.1758 57.845 34.3896 58.0389 34.5884C58.2328 34.7873 58.4888 34.9464 58.807 35.0657C59.1301 35.19 59.5229 35.2521 59.9853 35.2521C60.6763 35.2521 61.2456 35.0831 61.693 34.745C62.1454 34.4119 62.3716 33.8526 62.3716 33.0671V30.9716H62.2374C62.0982 31.2898 61.8894 31.5906 61.611 31.8739C61.3326 32.1573 60.9746 32.3885 60.5371 32.5675C60.0996 32.7464 59.5776 32.8359 58.9711 32.8359C58.111 32.8359 57.3279 32.6371 56.622 32.2393C55.921 31.8366 55.3617 31.2227 54.9441 30.3974C54.5314 29.5671 54.3251 28.5181 54.3251 27.2504C54.3251 25.9528 54.5364 24.869 54.959 23.9989C55.3816 23.1289 55.9434 22.4776 56.6444 22.0451C57.3503 21.6126 58.1234 21.3963 58.9636 21.3963C59.6049 21.3963 60.1419 21.5057 60.5744 21.7244C61.0069 21.9382 61.3549 22.2067 61.6184 22.5298C61.8869 22.848 62.0932 23.1612 62.2374 23.4695H62.3567V21.5455H65.5112V33.1119C65.5112 34.0863 65.2725 34.9016 64.7953 35.5579C64.318 36.2141 63.6568 36.7063 62.8116 37.0344C61.9714 37.3675 61.0044 37.5341 59.9107 37.5341ZM59.9778 30.4496C60.4899 30.4496 60.9224 30.3228 61.2754 30.0692C61.6333 29.8107 61.9068 29.4428 62.0957 28.9656C62.2896 28.4833 62.3865 27.9066 62.3865 27.2354C62.3865 26.5643 62.2921 25.9826 62.1032 25.4904C61.9142 24.9933 61.6408 24.608 61.2828 24.3345C60.9249 24.0611 60.4899 23.9244 59.9778 23.9244C59.4558 23.9244 59.0158 24.0661 58.6578 24.3494C58.2999 24.6278 58.0289 25.0156 57.845 25.5128C57.661 26.0099 57.5691 26.5842 57.5691 27.2354C57.5691 27.8967 57.661 28.4684 57.845 28.9506C58.0339 29.4279 58.3049 29.7983 58.6578 30.0618C59.0158 30.3203 59.4558 30.4496 59.9778 30.4496ZM71.2161 26.3778V33H68.0392V21.5455H71.0669V23.5664H71.2012C71.4547 22.9002 71.8798 22.3732 72.4764 21.9854C73.073 21.5927 73.7963 21.3963 74.6465 21.3963C75.4419 21.3963 76.1355 21.5703 76.7271 21.9183C77.3187 22.2663 77.7786 22.7635 78.1067 23.4098C78.4348 24.0511 78.5989 24.8168 78.5989 25.7067V33H75.4221V26.2734C75.427 25.5724 75.248 25.0256 74.8851 24.6328C74.5222 24.2351 74.0225 24.0362 73.3862 24.0362C72.9586 24.0362 72.5808 24.1282 72.2527 24.3121C71.9295 24.4961 71.676 24.7646 71.492 25.1175C71.313 25.4656 71.2211 25.8857 71.2161 26.3778ZM93.3086 28.1229V21.5455H96.4854V33H93.4354V30.9194H93.3161C93.0575 31.5906 92.6275 32.13 92.0259 32.5376C91.4293 32.9453 90.701 33.1491 89.8409 33.1491C89.0753 33.1491 88.4016 32.9751 87.82 32.6271C87.2383 32.2791 86.7834 31.7844 86.4553 31.1431C86.1321 30.5018 85.968 29.7337 85.9631 28.8388V21.5455H89.1399V28.272C89.1449 28.9482 89.3263 29.4826 89.6843 29.8754C90.0423 30.2681 90.522 30.4645 91.1236 30.4645C91.5064 30.4645 91.8643 30.3775 92.1974 30.2035C92.5305 30.0245 92.799 29.761 93.0028 29.413C93.2116 29.065 93.3136 28.6349 93.3086 28.1229ZM99.0265 37.2955V21.5455H102.159V23.4695H102.3C102.44 23.1612 102.641 22.848 102.904 22.5298C103.173 22.2067 103.521 21.9382 103.948 21.7244C104.381 21.5057 104.918 21.3963 105.559 21.3963C106.394 21.3963 107.165 21.6151 107.871 22.0526C108.577 22.4851 109.141 23.1388 109.564 24.0138C109.986 24.8839 110.198 25.9751 110.198 27.2876C110.198 28.5653 109.991 29.6442 109.579 30.5241C109.171 31.3991 108.614 32.0629 107.908 32.5153C107.207 32.9627 106.422 33.1864 105.552 33.1864C104.935 33.1864 104.411 33.0845 103.978 32.8807C103.551 32.6768 103.2 32.4208 102.927 32.1126C102.653 31.7994 102.445 31.4837 102.3 31.1655H102.203V37.2955H99.0265ZM102.136 27.2727C102.136 27.9538 102.231 28.5479 102.42 29.055C102.609 29.5621 102.882 29.9574 103.24 30.2408C103.598 30.5192 104.033 30.6584 104.545 30.6584C105.062 30.6584 105.5 30.5167 105.858 30.2333C106.215 29.945 106.486 29.5472 106.67 29.0401C106.859 28.5281 106.954 27.9389 106.954 27.2727C106.954 26.6115 106.862 26.0298 106.678 25.5277C106.494 25.0256 106.223 24.6328 105.865 24.3494C105.507 24.0661 105.067 23.9244 104.545 23.9244C104.028 23.9244 103.59 24.0611 103.233 24.3345C102.88 24.608 102.609 24.9957 102.42 25.4979C102.231 26 102.136 26.5916 102.136 27.2727Z" fill="white"/>
</svg>
